<?xml version="1.0" encoding="utf-8" standalone="no"?>
<!DOCTYPE svg PUBLIC "-//W3C//DTD SVG 1.1//EN"
  "http://www.w3.org/Graphics/SVG/1.1/DTD/svg11.dtd">
<svg xmlns:xlink="http://www.w3.org/1999/xlink" width="504pt" height="360pt" viewBox="0 0 504 360" xmlns="http://www.w3.org/2000/svg" version="1.1">
 <metadata>
  <rdf:RDF xmlns:dc="http://purl.org/dc/elements/1.1/" xmlns:cc="http://creativecommons.org/ns#" xmlns:rdf="http://www.w3.org/1999/02/22-rdf-syntax-ns#">
   <cc:Work>
    <dc:type rdf:resource="http://purl.org/dc/dcmitype/StillImage"/>
    <dc:date>2024-04-25T12:16:35.661685</dc:date>
    <dc:format>image/svg+xml</dc:format>
    <dc:creator>
     <cc:Agent>
      <dc:title>Matplotlib v3.8.4, https://matplotlib.org/</dc:title>
     </cc:Agent>
    </dc:creator>
   </cc:Work>
  </rdf:RDF>
 </metadata>
 <defs>
  <style type="text/css">*{stroke-linejoin: round; stroke-linecap: butt}</style>
 </defs>
 <g id="figure_1">
  <g id="patch_1">
   <path d="M 0 360 
L 504 360 
L 504 0 
L 0 0 
z
" style="fill: #ffffff"/>
  </g>
  <g id="axes_1">
   <g id="patch_2">
    <path d="M 63 320.4 
L 453.6 320.4 
L 453.6 43.2 
L 63 43.2 
z
" style="fill: #eaeaf2"/>
   </g>
   <g id="matplotlib.axis_1">
    <g id="xtick_1">
     <g id="line2d_1">
      <path d="M 63 320.4 
L 63 43.2 
" clip-path="url(#p4f815b046b)" style="fill: none; stroke-dasharray: 0.8,1.32; stroke-dashoffset: 0; stroke: #999999; stroke-width: 0.8"/>
     </g>
     <g id="text_1">
      <!-- 0 -->
      <g style="fill: #262626" transform="translate(59.81875 334.998438) scale(0.1 -0.1)">
       <defs>
        <path id="DejaVuSans-30" d="M 2034 4250 
Q 1547 4250 1301 3770 
Q 1056 3291 1056 2328 
Q 1056 1369 1301 889 
Q 1547 409 2034 409 
Q 2525 409 2770 889 
Q 3016 1369 3016 2328 
Q 3016 3291 2770 3770 
Q 2525 4250 2034 4250 
z
M 2034 4750 
Q 2819 4750 3233 4129 
Q 3647 3509 3647 2328 
Q 3647 1150 3233 529 
Q 2819 -91 2034 -91 
Q 1250 -91 836 529 
Q 422 1150 422 2328 
Q 422 3509 836 4129 
Q 1250 4750 2034 4750 
z
" transform="scale(0.015625)"/>
       </defs>
       <use xlink:href="#DejaVuSans-30"/>
      </g>
     </g>
    </g>
    <g id="xtick_2">
     <g id="line2d_2">
      <path d="M 111.825 320.4 
L 111.825 43.2 
" clip-path="url(#p4f815b046b)" style="fill: none; stroke-dasharray: 0.8,1.32; stroke-dashoffset: 0; stroke: #999999; stroke-width: 0.8"/>
     </g>
     <g id="text_2">
      <!-- 250 -->
      <g style="fill: #262626" transform="translate(102.28125 334.998438) scale(0.1 -0.1)">
       <defs>
        <path id="DejaVuSans-32" d="M 1228 531 
L 3431 531 
L 3431 0 
L 469 0 
L 469 531 
Q 828 903 1448 1529 
Q 2069 2156 2228 2338 
Q 2531 2678 2651 2914 
Q 2772 3150 2772 3378 
Q 2772 3750 2511 3984 
Q 2250 4219 1831 4219 
Q 1534 4219 1204 4116 
Q 875 4013 500 3803 
L 500 4441 
Q 881 4594 1212 4672 
Q 1544 4750 1819 4750 
Q 2544 4750 2975 4387 
Q 3406 4025 3406 3419 
Q 3406 3131 3298 2873 
Q 3191 2616 2906 2266 
Q 2828 2175 2409 1742 
Q 1991 1309 1228 531 
z
" transform="scale(0.015625)"/>
        <path id="DejaVuSans-35" d="M 691 4666 
L 3169 4666 
L 3169 4134 
L 1269 4134 
L 1269 2991 
Q 1406 3038 1543 3061 
Q 1681 3084 1819 3084 
Q 2600 3084 3056 2656 
Q 3513 2228 3513 1497 
Q 3513 744 3044 326 
Q 2575 -91 1722 -91 
Q 1428 -91 1123 -41 
Q 819 9 494 109 
L 494 744 
Q 775 591 1075 516 
Q 1375 441 1709 441 
Q 2250 441 2565 725 
Q 2881 1009 2881 1497 
Q 2881 1984 2565 2268 
Q 2250 2553 1709 2553 
Q 1456 2553 1204 2497 
Q 953 2441 691 2322 
L 691 4666 
z
" transform="scale(0.015625)"/>
       </defs>
       <use xlink:href="#DejaVuSans-32"/>
       <use xlink:href="#DejaVuSans-35" x="63.623047"/>
       <use xlink:href="#DejaVuSans-30" x="127.246094"/>
      </g>
     </g>
    </g>
    <g id="xtick_3">
     <g id="line2d_3">
      <path d="M 160.65 320.4 
L 160.65 43.2 
" clip-path="url(#p4f815b046b)" style="fill: none; stroke-dasharray: 0.8,1.32; stroke-dashoffset: 0; stroke: #999999; stroke-width: 0.8"/>
     </g>
     <g id="text_3">
      <!-- 500 -->
      <g style="fill: #262626" transform="translate(151.10625 334.998438) scale(0.1 -0.1)">
       <use xlink:href="#DejaVuSans-35"/>
       <use xlink:href="#DejaVuSans-30" x="63.623047"/>
       <use xlink:href="#DejaVuSans-30" x="127.246094"/>
      </g>
     </g>
    </g>
    <g id="xtick_4">
     <g id="line2d_4">
      <path d="M 209.475 320.4 
L 209.475 43.2 
" clip-path="url(#p4f815b046b)" style="fill: none; stroke-dasharray: 0.8,1.32; stroke-dashoffset: 0; stroke: #999999; stroke-width: 0.8"/>
     </g>
     <g id="text_4">
      <!-- 750 -->
      <g style="fill: #262626" transform="translate(199.93125 334.998438) scale(0.1 -0.1)">
       <defs>
        <path id="DejaVuSans-37" d="M 525 4666 
L 3525 4666 
L 3525 4397 
L 1831 0 
L 1172 0 
L 2766 4134 
L 525 4134 
L 525 4666 
z
" transform="scale(0.015625)"/>
       </defs>
       <use xlink:href="#DejaVuSans-37"/>
       <use xlink:href="#DejaVuSans-35" x="63.623047"/>
       <use xlink:href="#DejaVuSans-30" x="127.246094"/>
      </g>
     </g>
    </g>
    <g id="xtick_5">
     <g id="line2d_5">
      <path d="M 258.3 320.4 
L 258.3 43.2 
" clip-path="url(#p4f815b046b)" style="fill: none; stroke-dasharray: 0.8,1.32; stroke-dashoffset: 0; stroke: #999999; stroke-width: 0.8"/>
     </g>
     <g id="text_5">
      <!-- 1000 -->
      <g style="fill: #262626" transform="translate(245.575 334.998438) scale(0.1 -0.1)">
       <defs>
        <path id="DejaVuSans-31" d="M 794 531 
L 1825 531 
L 1825 4091 
L 703 3866 
L 703 4441 
L 1819 4666 
L 2450 4666 
L 2450 531 
L 3481 531 
L 3481 0 
L 794 0 
L 794 531 
z
" transform="scale(0.015625)"/>
       </defs>
       <use xlink:href="#DejaVuSans-31"/>
       <use xlink:href="#DejaVuSans-30" x="63.623047"/>
       <use xlink:href="#DejaVuSans-30" x="127.246094"/>
       <use xlink:href="#DejaVuSans-30" x="190.869141"/>
      </g>
     </g>
    </g>
    <g id="xtick_6">
     <g id="line2d_6">
      <path d="M 307.125 320.4 
L 307.125 43.2 
" clip-path="url(#p4f815b046b)" style="fill: none; stroke-dasharray: 0.8,1.32; stroke-dashoffset: 0; stroke: #999999; stroke-width: 0.8"/>
     </g>
     <g id="text_6">
      <!-- 1250 -->
      <g style="fill: #262626" transform="translate(294.4 334.998438) scale(0.1 -0.1)">
       <use xlink:href="#DejaVuSans-31"/>
       <use xlink:href="#DejaVuSans-32" x="63.623047"/>
       <use xlink:href="#DejaVuSans-35" x="127.246094"/>
       <use xlink:href="#DejaVuSans-30" x="190.869141"/>
      </g>
     </g>
    </g>
    <g id="xtick_7">
     <g id="line2d_7">
      <path d="M 355.95 320.4 
L 355.95 43.2 
" clip-path="url(#p4f815b046b)" style="fill: none; stroke-dasharray: 0.8,1.32; stroke-dashoffset: 0; stroke: #999999; stroke-width: 0.8"/>
     </g>
     <g id="text_7">
      <!-- 1500 -->
      <g style="fill: #262626" transform="translate(343.225 334.998438) scale(0.1 -0.1)">
       <use xlink:href="#DejaVuSans-31"/>
       <use xlink:href="#DejaVuSans-35" x="63.623047"/>
       <use xlink:href="#DejaVuSans-30" x="127.246094"/>
       <use xlink:href="#DejaVuSans-30" x="190.869141"/>
      </g>
     </g>
    </g>
    <g id="xtick_8">
     <g id="line2d_8">
      <path d="M 404.775 320.4 
L 404.775 43.2 
" clip-path="url(#p4f815b046b)" style="fill: none; stroke-dasharray: 0.8,1.32; stroke-dashoffset: 0; stroke: #999999; stroke-width: 0.8"/>
     </g>
     <g id="text_8">
      <!-- 1750 -->
      <g style="fill: #262626" transform="translate(392.05 334.998438) scale(0.1 -0.1)">
       <use xlink:href="#DejaVuSans-31"/>
       <use xlink:href="#DejaVuSans-37" x="63.623047"/>
       <use xlink:href="#DejaVuSans-35" x="127.246094"/>
       <use xlink:href="#DejaVuSans-30" x="190.869141"/>
      </g>
     </g>
    </g>
    <g id="xtick_9">
     <g id="line2d_9">
      <path d="M 453.6 320.4 
L 453.6 43.2 
" clip-path="url(#p4f815b046b)" style="fill: none; stroke-dasharray: 0.8,1.32; stroke-dashoffset: 0; stroke: #999999; stroke-width: 0.8"/>
     </g>
     <g id="text_9">
      <!-- 2000 -->
      <g style="fill: #262626" transform="translate(440.875 334.998438) scale(0.1 -0.1)">
       <use xlink:href="#DejaVuSans-32"/>
       <use xlink:href="#DejaVuSans-30" x="63.623047"/>
       <use xlink:href="#DejaVuSans-30" x="127.246094"/>
       <use xlink:href="#DejaVuSans-30" x="190.869141"/>
      </g>
     </g>
    </g>
    <g id="text_10">
     <!-- E [keV] -->
     <g style="fill: #262626" transform="translate(240.439063 348.676562) scale(0.1 -0.1)">
      <defs>
       <path id="DejaVuSans-45" d="M 628 4666 
L 3578 4666 
L 3578 4134 
L 1259 4134 
L 1259 2753 
L 3481 2753 
L 3481 2222 
L 1259 2222 
L 1259 531 
L 3634 531 
L 3634 0 
L 628 0 
L 628 4666 
z
" transform="scale(0.015625)"/>
       <path id="DejaVuSans-20" transform="scale(0.015625)"/>
       <path id="DejaVuSans-5b" d="M 550 4863 
L 1875 4863 
L 1875 4416 
L 1125 4416 
L 1125 -397 
L 1875 -397 
L 1875 -844 
L 550 -844 
L 550 4863 
z
" transform="scale(0.015625)"/>
       <path id="DejaVuSans-6b" d="M 581 4863 
L 1159 4863 
L 1159 1991 
L 2875 3500 
L 3609 3500 
L 1753 1863 
L 3688 0 
L 2938 0 
L 1159 1709 
L 1159 0 
L 581 0 
L 581 4863 
z
" transform="scale(0.015625)"/>
       <path id="DejaVuSans-65" d="M 3597 1894 
L 3597 1613 
L 953 1613 
Q 991 1019 1311 708 
Q 1631 397 2203 397 
Q 2534 397 2845 478 
Q 3156 559 3463 722 
L 3463 178 
Q 3153 47 2828 -22 
Q 2503 -91 2169 -91 
Q 1331 -91 842 396 
Q 353 884 353 1716 
Q 353 2575 817 3079 
Q 1281 3584 2069 3584 
Q 2775 3584 3186 3129 
Q 3597 2675 3597 1894 
z
M 3022 2063 
Q 3016 2534 2758 2815 
Q 2500 3097 2075 3097 
Q 1594 3097 1305 2825 
Q 1016 2553 972 2059 
L 3022 2063 
z
" transform="scale(0.015625)"/>
       <path id="DejaVuSans-56" d="M 1831 0 
L 50 4666 
L 709 4666 
L 2188 738 
L 3669 4666 
L 4325 4666 
L 2547 0 
L 1831 0 
z
" transform="scale(0.015625)"/>
       <path id="DejaVuSans-5d" d="M 1947 4863 
L 1947 -844 
L 622 -844 
L 622 -397 
L 1369 -397 
L 1369 4416 
L 622 4416 
L 622 4863 
L 1947 4863 
z
" transform="scale(0.015625)"/>
      </defs>
      <use xlink:href="#DejaVuSans-45"/>
      <use xlink:href="#DejaVuSans-20" x="63.183594"/>
      <use xlink:href="#DejaVuSans-5b" x="94.970703"/>
      <use xlink:href="#DejaVuSans-6b" x="133.984375"/>
      <use xlink:href="#DejaVuSans-65" x="188.269531"/>
      <use xlink:href="#DejaVuSans-56" x="249.792969"/>
      <use xlink:href="#DejaVuSans-5d" x="318.201172"/>
     </g>
    </g>
   </g>
   <g id="matplotlib.axis_2">
    <g id="ytick_1">
     <g id="line2d_10">
      <path d="M 63 261.514176 
L 453.6 261.514176 
" clip-path="url(#p4f815b046b)" style="fill: none; stroke-dasharray: 0.8,1.32; stroke-dashoffset: 0; stroke: #999999; stroke-width: 0.8"/>
     </g>
     <g id="text_11">
      <!-- 1000 -->
      <g style="fill: #262626" transform="translate(30.55 265.313395) scale(0.1 -0.1)">
       <use xlink:href="#DejaVuSans-31"/>
       <use xlink:href="#DejaVuSans-30" x="63.623047"/>
       <use xlink:href="#DejaVuSans-30" x="127.246094"/>
       <use xlink:href="#DejaVuSans-30" x="190.869141"/>
      </g>
     </g>
    </g>
    <g id="ytick_2">
     <g id="line2d_11">
      <path d="M 63 202.510345 
L 453.6 202.510345 
" clip-path="url(#p4f815b046b)" style="fill: none; stroke-dasharray: 0.8,1.32; stroke-dashoffset: 0; stroke: #999999; stroke-width: 0.8"/>
     </g>
     <g id="text_12">
      <!-- 2000 -->
      <g style="fill: #262626" transform="translate(30.55 206.309564) scale(0.1 -0.1)">
       <use xlink:href="#DejaVuSans-32"/>
       <use xlink:href="#DejaVuSans-30" x="63.623047"/>
       <use xlink:href="#DejaVuSans-30" x="127.246094"/>
       <use xlink:href="#DejaVuSans-30" x="190.869141"/>
      </g>
     </g>
    </g>
    <g id="ytick_3">
     <g id="line2d_12">
      <path d="M 63 143.506513 
L 453.6 143.506513 
" clip-path="url(#p4f815b046b)" style="fill: none; stroke-dasharray: 0.8,1.32; stroke-dashoffset: 0; stroke: #999999; stroke-width: 0.8"/>
     </g>
     <g id="text_13">
      <!-- 3000 -->
      <g style="fill: #262626" transform="translate(30.55 147.305732) scale(0.1 -0.1)">
       <defs>
        <path id="DejaVuSans-33" d="M 2597 2516 
Q 3050 2419 3304 2112 
Q 3559 1806 3559 1356 
Q 3559 666 3084 287 
Q 2609 -91 1734 -91 
Q 1441 -91 1130 -33 
Q 819 25 488 141 
L 488 750 
Q 750 597 1062 519 
Q 1375 441 1716 441 
Q 2309 441 2620 675 
Q 2931 909 2931 1356 
Q 2931 1769 2642 2001 
Q 2353 2234 1838 2234 
L 1294 2234 
L 1294 2753 
L 1863 2753 
Q 2328 2753 2575 2939 
Q 2822 3125 2822 3475 
Q 2822 3834 2567 4026 
Q 2313 4219 1838 4219 
Q 1578 4219 1281 4162 
Q 984 4106 628 3988 
L 628 4550 
Q 988 4650 1302 4700 
Q 1616 4750 1894 4750 
Q 2613 4750 3031 4423 
Q 3450 4097 3450 3541 
Q 3450 3153 3228 2886 
Q 3006 2619 2597 2516 
z
" transform="scale(0.015625)"/>
       </defs>
       <use xlink:href="#DejaVuSans-33"/>
       <use xlink:href="#DejaVuSans-30" x="63.623047"/>
       <use xlink:href="#DejaVuSans-30" x="127.246094"/>
       <use xlink:href="#DejaVuSans-30" x="190.869141"/>
      </g>
     </g>
    </g>
    <g id="ytick_4">
     <g id="line2d_13">
      <path d="M 63 84.502682 
L 453.6 84.502682 
" clip-path="url(#p4f815b046b)" style="fill: none; stroke-dasharray: 0.8,1.32; stroke-dashoffset: 0; stroke: #999999; stroke-width: 0.8"/>
     </g>
     <g id="text_14">
      <!-- 4000 -->
      <g style="fill: #262626" transform="translate(30.55 88.301901) scale(0.1 -0.1)">
       <defs>
        <path id="DejaVuSans-34" d="M 2419 4116 
L 825 1625 
L 2419 1625 
L 2419 4116 
z
M 2253 4666 
L 3047 4666 
L 3047 1625 
L 3713 1625 
L 3713 1100 
L 3047 1100 
L 3047 0 
L 2419 0 
L 2419 1100 
L 313 1100 
L 313 1709 
L 2253 4666 
z
" transform="scale(0.015625)"/>
       </defs>
       <use xlink:href="#DejaVuSans-34"/>
       <use xlink:href="#DejaVuSans-30" x="63.623047"/>
       <use xlink:href="#DejaVuSans-30" x="127.246094"/>
       <use xlink:href="#DejaVuSans-30" x="190.869141"/>
      </g>
     </g>
    </g>
    <g id="text_15">
     <!-- Counts -->
     <g style="fill: #262626" transform="translate(24.470312 199.253125) rotate(-90) scale(0.1 -0.1)">
      <defs>
       <path id="DejaVuSans-43" d="M 4122 4306 
L 4122 3641 
Q 3803 3938 3442 4084 
Q 3081 4231 2675 4231 
Q 1875 4231 1450 3742 
Q 1025 3253 1025 2328 
Q 1025 1406 1450 917 
Q 1875 428 2675 428 
Q 3081 428 3442 575 
Q 3803 722 4122 1019 
L 4122 359 
Q 3791 134 3420 21 
Q 3050 -91 2638 -91 
Q 1578 -91 968 557 
Q 359 1206 359 2328 
Q 359 3453 968 4101 
Q 1578 4750 2638 4750 
Q 3056 4750 3426 4639 
Q 3797 4528 4122 4306 
z
" transform="scale(0.015625)"/>
       <path id="DejaVuSans-6f" d="M 1959 3097 
Q 1497 3097 1228 2736 
Q 959 2375 959 1747 
Q 959 1119 1226 758 
Q 1494 397 1959 397 
Q 2419 397 2687 759 
Q 2956 1122 2956 1747 
Q 2956 2369 2687 2733 
Q 2419 3097 1959 3097 
z
M 1959 3584 
Q 2709 3584 3137 3096 
Q 3566 2609 3566 1747 
Q 3566 888 3137 398 
Q 2709 -91 1959 -91 
Q 1206 -91 779 398 
Q 353 888 353 1747 
Q 353 2609 779 3096 
Q 1206 3584 1959 3584 
z
" transform="scale(0.015625)"/>
       <path id="DejaVuSans-75" d="M 544 1381 
L 544 3500 
L 1119 3500 
L 1119 1403 
Q 1119 906 1312 657 
Q 1506 409 1894 409 
Q 2359 409 2629 706 
Q 2900 1003 2900 1516 
L 2900 3500 
L 3475 3500 
L 3475 0 
L 2900 0 
L 2900 538 
Q 2691 219 2414 64 
Q 2138 -91 1772 -91 
Q 1169 -91 856 284 
Q 544 659 544 1381 
z
M 1991 3584 
L 1991 3584 
z
" transform="scale(0.015625)"/>
       <path id="DejaVuSans-6e" d="M 3513 2113 
L 3513 0 
L 2938 0 
L 2938 2094 
Q 2938 2591 2744 2837 
Q 2550 3084 2163 3084 
Q 1697 3084 1428 2787 
Q 1159 2491 1159 1978 
L 1159 0 
L 581 0 
L 581 3500 
L 1159 3500 
L 1159 2956 
Q 1366 3272 1645 3428 
Q 1925 3584 2291 3584 
Q 2894 3584 3203 3211 
Q 3513 2838 3513 2113 
z
" transform="scale(0.015625)"/>
       <path id="DejaVuSans-74" d="M 1172 4494 
L 1172 3500 
L 2356 3500 
L 2356 3053 
L 1172 3053 
L 1172 1153 
Q 1172 725 1289 603 
Q 1406 481 1766 481 
L 2356 481 
L 2356 0 
L 1766 0 
Q 1100 0 847 248 
Q 594 497 594 1153 
L 594 3053 
L 172 3053 
L 172 3500 
L 594 3500 
L 594 4494 
L 1172 4494 
z
" transform="scale(0.015625)"/>
       <path id="DejaVuSans-73" d="M 2834 3397 
L 2834 2853 
Q 2591 2978 2328 3040 
Q 2066 3103 1784 3103 
Q 1356 3103 1142 2972 
Q 928 2841 928 2578 
Q 928 2378 1081 2264 
Q 1234 2150 1697 2047 
L 1894 2003 
Q 2506 1872 2764 1633 
Q 3022 1394 3022 966 
Q 3022 478 2636 193 
Q 2250 -91 1575 -91 
Q 1294 -91 989 -36 
Q 684 19 347 128 
L 347 722 
Q 666 556 975 473 
Q 1284 391 1588 391 
Q 1994 391 2212 530 
Q 2431 669 2431 922 
Q 2431 1156 2273 1281 
Q 2116 1406 1581 1522 
L 1381 1569 
Q 847 1681 609 1914 
Q 372 2147 372 2553 
Q 372 3047 722 3315 
Q 1072 3584 1716 3584 
Q 2034 3584 2315 3537 
Q 2597 3491 2834 3397 
z
" transform="scale(0.015625)"/>
      </defs>
      <use xlink:href="#DejaVuSans-43"/>
      <use xlink:href="#DejaVuSans-6f" x="69.824219"/>
      <use xlink:href="#DejaVuSans-75" x="131.005859"/>
      <use xlink:href="#DejaVuSans-6e" x="194.384766"/>
      <use xlink:href="#DejaVuSans-74" x="257.763672"/>
      <use xlink:href="#DejaVuSans-73" x="296.972656"/>
     </g>
    </g>
   </g>
   <g id="line2d_14">
    <path d="M 63.027288 -1 
L 63.154726 320.518008 
L 66.597428 320.518008 
L 66.693059 320.4 
L 66.788689 319.927969 
L 66.97995 300.279693 
L 67.075581 301.518774 
L 67.171212 299.866667 
L 67.266842 301.754789 
L 67.362473 299.276628 
L 67.458103 300.397701 
L 67.553734 300.279693 
L 67.649365 300.161686 
L 67.840626 302.22682 
L 67.936256 300.397701 
L 68.031887 303.406897 
L 68.127518 301.872797 
L 68.223148 302.698851 
L 68.318779 301.046743 
L 68.414409 301.282759 
L 68.605671 301.931801 
L 68.796932 304.350958 
L 68.892562 302.049808 
L 68.988193 303.819923 
L 69.083824 303.170881 
L 69.179454 303.229885 
L 69.275085 304.940996 
L 69.370715 301.577778 
L 69.561976 304.23295 
L 69.753238 301.282759 
L 69.848868 302.167816 
L 70.13576 305.118008 
L 70.231391 303.347893 
L 70.422652 305.177011 
L 70.613913 303.701916 
L 70.709544 302.462835 
L 70.805174 305.118008 
L 71.092066 303.229885 
L 71.187697 303.170881 
L 71.283327 302.462835 
L 71.474588 304.586973 
L 71.66585 304.822989 
L 71.76148 305.76705 
L 71.857111 304.586973 
L 71.952741 304.940996 
L 72.144003 301.931801 
L 72.430894 305.118008 
L 72.526525 303.583908 
L 72.717786 305.649042 
L 72.813417 304.291954 
L 72.909047 305.118008 
L 73.100309 303.642912 
L 73.195939 304.114943 
L 73.29157 303.524904 
L 73.3872 304.055939 
L 73.482831 303.819923 
L 73.578462 304.055939 
L 73.674092 306.180077 
L 73.769723 304.291954 
L 73.865353 304.822989 
L 73.960984 303.76092 
L 74.056615 304.527969 
L 74.152245 303.052874 
L 74.247876 304.055939 
L 74.343506 303.701916 
L 74.439137 304.055939 
L 74.534768 302.580843 
L 74.630398 303.937931 
L 74.726029 303.170881 
L 74.821659 303.878927 
L 75.108551 300.869732 
L 75.204182 300.397701 
L 75.299812 298.804598 
L 75.395443 292.37318 
L 75.491074 292.432184 
L 75.682335 298.273563 
L 75.873596 301.400766 
L 76.064857 298.568582 
L 76.160488 300.456705 
L 76.351749 295.677395 
L 76.44738 296.68046 
L 76.54301 296.562452 
L 76.638641 297.329502 
L 76.829902 300.456705 
L 77.116794 298.273563 
L 77.212424 297.860536 
L 77.499316 289.659004 
L 77.690577 261.750192 
L 77.881839 278.684291 
L 78.16873 244.226054 
L 78.455622 292.963218 
L 78.551253 292.904215 
L 78.646883 296.031418 
L 78.742514 293.671264 
L 78.933775 299.571648 
L 79.029406 297.506513 
L 79.125036 297.742529 
L 79.220667 298.804598 
L 79.411928 289.127969 
L 79.507559 291.075096 
L 79.603189 290.131034 
L 79.69882 298.037548 
L 79.985712 289.6 
L 80.081342 277.74023 
L 80.176973 279.864368 
L 80.463865 294.910345 
L 80.655126 291.016092 
L 80.750756 294.910345 
L 80.942018 292.668199 
L 81.228909 264.34636 
L 81.420171 279.451341 
L 81.611432 271.662835 
L 81.993954 301.105747 
L 82.185215 275.793103 
L 82.376477 252.427586 
L 82.663368 301.636782 
L 82.85463 305.76705 
L 82.95026 304.055939 
L 83.045891 306.23908 
L 83.141521 304.822989 
L 83.237152 307.065134 
L 83.428413 303.937931 
L 83.524044 303.937931 
L 83.619674 305.76705 
L 83.715305 303.819923 
L 83.810936 306.003065 
L 83.906566 305.944061 
L 84.097827 305.649042 
L 84.289089 303.878927 
L 84.384719 304.055939 
L 84.57598 298.391571 
L 84.767242 285.882759 
L 85.245395 303.4659 
L 85.341025 298.981609 
L 85.436656 299.512644 
L 85.532286 298.804598 
L 85.723548 304.881992 
L 85.819178 305.236015 
L 85.914809 307.596169 
L 86.010439 306.23908 
L 86.10607 308.363218 
L 86.201701 306.003065 
L 86.297331 306.298084 
L 86.392962 307.891188 
L 86.488592 307.77318 
L 86.584223 307.655172 
L 86.679854 307.183142 
L 86.775484 307.714176 
L 86.871115 307.537165 
L 86.966745 306.593103 
L 87.158007 308.186207 
L 87.253637 306.829119 
L 87.349268 308.068199 
L 87.444898 306.298084 
L 87.540529 306.416092 
L 87.63616 307.655172 
L 87.73179 307.419157 
L 87.827421 306.770115 
L 88.114313 307.950192 
L 88.401204 304.822989 
L 88.592465 307.419157 
L 88.688096 306.888123 
L 88.783727 307.00613 
L 88.879357 306.947126 
L 88.974988 306.121073 
L 89.166249 307.183142 
L 89.26188 306.5341 
L 89.453141 308.245211 
L 89.548771 306.416092 
L 89.740033 307.714176 
L 89.835663 307.124138 
L 89.931294 307.537165 
L 90.026924 307.301149 
L 90.122555 305.177011 
L 90.218186 307.183142 
L 90.313816 306.357088 
L 90.409447 307.419157 
L 90.505077 306.180077 
L 90.600708 306.770115 
L 90.696339 305.649042 
L 90.791969 308.953257 
L 91.174492 300.397701 
L 91.461383 306.829119 
L 91.557014 306.003065 
L 91.748275 306.947126 
L 91.843906 306.416092 
L 91.939536 307.419157 
L 92.130798 304.940996 
L 92.322059 306.5341 
L 92.417689 306.416092 
L 92.51332 306.593103 
L 92.608951 308.186207 
L 92.704581 307.77318 
L 92.991473 304.527969 
L 93.087104 303.76092 
L 93.182734 304.055939 
L 93.278365 302.757854 
L 93.373995 307.00613 
L 93.469626 305.826054 
L 93.565257 306.593103 
L 93.660887 305.885057 
L 94.04341 307.891188 
L 94.13904 305.944061 
L 94.234671 306.003065 
L 94.425932 306.829119 
L 94.521563 307.00613 
L 94.617193 308.599234 
L 94.904085 305.177011 
L 95.095346 307.655172 
L 95.190977 306.475096 
L 95.382238 308.835249 
L 95.477869 307.832184 
L 95.573499 308.953257 
L 95.76476 306.298084 
L 95.860391 306.770115 
L 95.956022 307.124138 
L 96.051652 306.593103 
L 96.242913 308.481226 
L 96.338544 306.475096 
L 96.434175 307.478161 
L 96.529805 307.301149 
L 96.721066 309.012261 
L 96.912328 307.950192 
L 97.007958 308.894253 
L 97.103589 308.835249 
L 97.199219 308.127203 
L 97.29485 306.416092 
L 97.390481 308.009195 
L 97.486111 307.242146 
L 97.581742 308.186207 
L 97.677372 307.242146 
L 97.773003 308.363218 
L 97.868633 308.304215 
L 97.964264 308.304215 
L 98.155525 306.652107 
L 98.251156 308.599234 
L 98.346786 307.242146 
L 98.442417 308.776245 
L 98.633678 307.478161 
L 98.729309 307.360153 
L 98.824939 308.363218 
L 98.92057 305.295019 
L 99.016201 307.655172 
L 99.111831 301.577778 
L 99.398723 256.02682 
L 99.876876 309.30728 
L 100.068137 307.655172 
L 100.163768 308.009195 
L 100.259398 308.835249 
L 100.355029 307.537165 
L 100.45066 309.425287 
L 100.54629 309.130268 
L 100.641921 307.655172 
L 100.833182 309.366284 
L 100.928813 307.655172 
L 101.120074 309.30728 
L 101.215704 308.658238 
L 101.311335 308.717241 
L 101.406966 308.304215 
L 101.502596 308.363218 
L 101.693857 307.714176 
L 101.789488 308.009195 
L 101.885119 308.776245 
L 101.980749 307.77318 
L 102.07638 309.602299 
L 102.17201 307.537165 
L 102.363272 310.251341 
L 102.554533 307.714176 
L 102.650163 309.071264 
L 102.745794 309.012261 
L 102.841425 307.478161 
L 102.937055 308.422222 
L 103.128316 307.832184 
L 103.415208 310.782375 
L 103.510839 310.310345 
L 103.606469 310.782375 
L 103.7021 308.54023 
L 103.797731 311.018391 
L 103.893361 309.130268 
L 103.988992 310.782375 
L 104.180253 308.658238 
L 104.371514 309.838314 
L 104.467145 311.844444 
L 104.562775 311.667433 
L 104.658406 311.431418 
L 104.849667 309.366284 
L 105.040928 311.490421 
L 105.136559 309.661303 
L 105.32782 311.372414 
L 105.423451 311.549425 
L 105.519081 311.490421 
L 105.614712 312.257471 
L 105.710343 310.900383 
L 105.805973 311.962452 
L 105.901604 311.726437 
L 105.997234 312.08046 
L 106.284126 310.605364 
L 106.379757 310.664368 
L 106.475387 311.667433 
L 106.571018 311.254406 
L 106.666649 312.434483 
L 106.85791 310.07433 
L 106.95354 311.844444 
L 107.049171 311.726437 
L 107.144802 312.139464 
L 107.240432 310.54636 
L 107.622954 311.608429 
L 107.814216 311.254406 
L 108.005477 312.139464 
L 108.101107 311.549425 
L 108.196738 311.726437 
L 108.292369 310.369349 
L 108.387999 312.257471 
L 108.48363 312.139464 
L 108.57926 311.195402 
L 108.674891 311.962452 
L 108.770522 311.785441 
L 108.866152 312.198467 
L 109.057413 308.068199 
L 109.153044 306.711111 
L 109.439936 311.903448 
L 109.535566 311.136398 
L 109.726828 310.605364 
L 109.822458 310.841379 
L 109.918089 310.723372 
L 110.013719 305.531034 
L 110.204981 266.116475 
L 110.300611 249.890421 
L 110.396242 261.278161 
L 110.683134 311.254406 
L 110.778764 313.260536 
L 110.874395 312.729502 
L 110.970025 311.549425 
L 111.065656 313.555556 
L 111.161287 312.84751 
L 111.256917 314.08659 
L 111.448178 312.139464 
L 111.543809 313.909579 
L 111.63944 313.791571 
L 111.830701 312.729502 
L 111.926331 313.673563 
L 112.021962 313.260536 
L 112.117593 312.08046 
L 112.213223 313.850575 
L 112.404484 313.31954 
L 112.500115 314.558621 
L 112.787007 312.493487 
L 112.978268 311.726437 
L 113.073899 313.142529 
L 113.169529 309.897318 
L 113.26516 312.434483 
L 113.36079 311.31341 
L 113.456421 311.726437 
L 113.647682 307.596169 
L 113.838943 312.139464 
L 114.030205 313.673563 
L 114.125835 314.145594 
L 114.221466 312.493487 
L 114.412727 314.027586 
L 114.508358 313.791571 
L 114.603988 313.614559 
L 114.795249 314.145594 
L 114.89088 312.729502 
L 114.986511 314.322605 
L 115.082141 312.611494 
L 115.177772 314.558621 
L 115.369033 312.434483 
L 115.464664 312.139464 
L 115.655925 307.714176 
L 115.847186 310.251341 
L 115.942817 309.130268 
L 116.229708 312.55249 
L 116.325339 312.493487 
L 116.42097 311.785441 
L 116.5166 312.611494 
L 116.707861 311.490421 
L 116.803492 311.903448 
L 116.899123 311.549425 
L 116.994753 314.440613 
L 117.090384 313.142529 
L 117.472906 314.617625 
L 117.568537 313.968582 
L 117.664167 314.263602 
L 117.855428 312.55249 
L 117.951059 314.08659 
L 118.04669 313.496552 
L 118.14232 313.673563 
L 118.237951 313.083525 
L 118.333581 315.207663 
L 118.524843 313.142529 
L 118.620473 314.145594 
L 118.716104 313.791571 
L 118.811734 314.381609 
L 118.907365 312.84751 
L 119.098626 314.735632 
L 119.194257 315.148659 
L 119.289887 313.673563 
L 119.385518 314.558621 
L 119.576779 313.909579 
L 119.76804 314.85364 
L 119.863671 314.735632 
L 119.959302 313.555556 
L 120.054932 314.85364 
L 120.341824 308.304215 
L 120.437455 290.544061 
L 120.724346 174.188506 
L 121.106869 311.667433 
L 121.202499 316.033716 
L 121.585022 313.024521 
L 121.680652 313.260536 
L 121.871914 314.85364 
L 121.967544 313.850575 
L 122.063175 314.145594 
L 122.158805 314.85364 
L 122.254436 314.027586 
L 122.350067 314.735632 
L 122.445697 314.617625 
L 122.541328 314.794636 
L 122.636958 313.614559 
L 122.732589 315.32567 
L 122.82822 313.791571 
L 122.92385 315.62069 
L 123.019481 314.794636 
L 123.115111 315.443678 
L 123.210742 314.676628 
L 123.402003 315.32567 
L 123.593264 314.794636 
L 123.688895 315.679693 
L 123.880156 315.148659 
L 123.975787 314.971648 
L 124.071417 315.030651 
L 124.262679 313.909579 
L 124.358309 314.794636 
L 124.45394 314.381609 
L 124.645201 315.443678 
L 124.740832 314.322605 
L 125.027723 315.974713 
L 125.123354 314.499617 
L 125.314615 316.446743 
L 125.505876 314.912644 
L 125.601507 314.381609 
L 125.888399 316.210728 
L 126.07966 315.089655 
L 126.270921 314.381609 
L 126.462182 314.912644 
L 126.557813 314.322605 
L 126.653443 315.738697 
L 126.749074 315.089655 
L 126.940335 315.915709 
L 127.035966 314.322605 
L 127.131596 315.384674 
L 127.227227 313.673563 
L 127.322858 314.558621 
L 127.418488 314.381609 
L 127.514119 314.794636 
L 127.609749 313.673563 
L 127.801011 314.971648 
L 127.896641 315.443678 
L 128.087902 314.912644 
L 128.183533 315.148659 
L 128.470425 314.381609 
L 128.757317 316.328736 
L 128.852947 314.617625 
L 128.948578 315.797701 
L 129.139839 314.499617 
L 129.23547 316.387739 
L 129.426731 314.735632 
L 129.522361 314.440613 
L 129.713623 315.266667 
L 129.809253 314.971648 
L 129.904884 314.027586 
L 130.000514 314.322605 
L 130.096145 315.384674 
L 130.191776 314.85364 
L 130.383037 315.856705 
L 130.478667 315.974713 
L 130.574298 315.738697 
L 130.765559 315.030651 
L 130.95682 315.443678 
L 131.052451 314.440613 
L 131.148082 315.384674 
L 131.243712 314.322605 
L 131.339343 311.018391 
L 131.434973 297.034483 
L 131.626235 174.660536 
L 131.817496 85.505747 
L 132.200018 313.31954 
L 132.391279 317.390805 
L 132.48691 317.154789 
L 132.582541 315.856705 
L 132.678171 315.915709 
L 132.773802 315.974713 
L 132.869432 316.387739 
L 132.965063 316.269732 
L 133.060694 316.446743 
L 133.156324 317.331801 
L 133.251955 316.328736 
L 133.347585 317.036782 
L 133.443216 316.033716 
L 133.538847 316.564751 
L 133.634477 316.09272 
L 133.825738 316.210728 
L 133.921369 316.210728 
L 134.11263 317.685824 
L 134.208261 316.210728 
L 134.399522 316.977778 
L 134.495153 315.915709 
L 134.782044 317.213793 
L 134.877675 316.977778 
L 134.973306 316.151724 
L 135.164567 316.446743 
L 135.355828 316.033716 
L 135.451459 316.741762 
L 135.547089 315.856705 
L 135.64272 315.915709 
L 135.73835 316.682759 
L 135.833981 316.564751 
L 135.929612 315.148659 
L 136.025242 316.682759 
L 136.120873 316.505747 
L 136.216503 316.741762 
L 136.407764 315.797701 
L 136.503395 317.036782 
L 136.599026 316.446743 
L 136.694656 317.213793 
L 136.790287 317.095785 
L 137.077179 315.915709 
L 137.172809 316.151724 
L 137.26844 317.036782 
L 137.36407 315.679693 
L 137.459701 315.974713 
L 137.555332 317.213793 
L 137.650962 316.033716 
L 137.746593 316.977778 
L 137.937854 316.505747 
L 138.033485 316.682759 
L 138.129115 316.446743 
L 138.224746 316.623755 
L 138.320376 316.564751 
L 138.607268 314.381609 
L 138.702899 314.617625 
L 138.798529 315.502682 
L 138.989791 313.437548 
L 139.181052 316.269732 
L 139.276682 316.151724 
L 139.467944 316.682759 
L 139.563574 315.738697 
L 139.659205 316.151724 
L 139.754835 315.797701 
L 139.946097 316.741762 
L 140.041727 316.151724 
L 140.137358 316.328736 
L 140.328619 315.679693 
L 140.42425 316.800766 
L 140.615511 316.387739 
L 140.902403 316.151724 
L 141.093664 316.977778 
L 141.189294 315.856705 
L 141.284925 316.033716 
L 141.380556 315.266667 
L 141.476186 315.561686 
L 141.571817 315.32567 
L 141.858709 316.151724 
L 141.954339 315.915709 
L 142.1456 314.145594 
L 142.623753 316.85977 
L 142.815015 315.915709 
L 143.006276 316.564751 
L 143.101906 315.384674 
L 143.197537 316.446743 
L 143.293168 316.151724 
L 143.388798 316.210728 
L 143.580059 317.036782 
L 143.866951 315.443678 
L 144.058212 316.328736 
L 144.153843 316.918774 
L 144.345104 315.502682 
L 144.631996 316.387739 
L 144.727627 316.387739 
L 144.823257 315.856705 
L 144.918888 316.151724 
L 145.014518 315.561686 
L 145.110149 316.800766 
L 145.20578 316.033716 
L 145.30141 316.741762 
L 145.397041 316.623755 
L 145.492671 315.207663 
L 145.588302 316.210728 
L 145.683932 316.151724 
L 145.779563 316.623755 
L 145.875194 316.269732 
L 145.970824 316.800766 
L 146.162085 315.797701 
L 146.257716 316.269732 
L 146.353347 315.32567 
L 146.448977 315.502682 
L 146.544608 316.269732 
L 146.640238 315.915709 
L 146.92713 316.564751 
L 147.022761 316.682759 
L 147.118391 316.505747 
L 147.309653 316.682759 
L 147.405283 316.328736 
L 147.500914 317.213793 
L 147.596544 316.564751 
L 147.692175 316.85977 
L 147.787806 316.623755 
L 148.074697 317.036782 
L 148.170328 316.269732 
L 148.361589 317.862835 
L 148.45722 317.980843 
L 148.55285 316.682759 
L 148.744112 317.390805 
L 148.839742 317.272797 
L 148.935373 317.036782 
L 149.031003 317.980843 
L 149.126634 317.449808 
L 149.222265 318.098851 
L 149.317895 317.213793 
L 149.413526 317.508812 
L 149.604787 317.390805 
L 149.700418 317.685824 
L 149.891679 317.449808 
L 149.987309 317.390805 
L 150.08294 317.567816 
L 150.178571 316.505747 
L 150.369832 318.098851 
L 150.465462 317.390805 
L 150.561093 317.508812 
L 150.752354 317.567816 
L 150.847985 317.390805 
L 151.039246 317.390805 
L 151.134877 317.980843 
L 151.421768 316.977778 
L 151.61303 317.331801 
L 151.804291 316.564751 
L 151.899921 316.564751 
L 152.091183 318.098851 
L 152.186813 316.741762 
L 152.282444 317.685824 
L 152.378074 317.036782 
L 152.473705 317.390805 
L 152.569336 317.036782 
L 152.664966 318.452874 
L 153.047489 316.741762 
L 153.143119 317.331801 
L 153.23875 316.151724 
L 153.430011 317.921839 
L 153.621272 317.095785 
L 153.716903 317.62682 
L 153.812533 317.390805 
L 154.003795 318.098851 
L 154.099425 317.862835 
L 154.195056 317.921839 
L 154.290686 318.39387 
L 154.481948 316.800766 
L 154.673209 317.449808 
L 154.768839 317.272797 
L 154.86447 318.39387 
L 155.055731 317.390805 
L 155.246992 318.216858 
L 155.533884 317.154789 
L 155.629515 317.331801 
L 155.725145 317.331801 
L 155.820776 316.85977 
L 155.916406 317.980843 
L 156.012037 317.449808 
L 156.107668 318.452874 
L 156.203298 318.39387 
L 156.298929 317.803831 
L 156.394559 317.862835 
L 156.872712 316.446743 
L 156.968343 317.272797 
L 157.063974 315.974713 
L 157.255235 318.039847 
L 157.350865 318.157854 
L 157.446496 317.567816 
L 157.542127 318.629885 
L 157.637757 317.508812 
L 157.733388 318.275862 
L 157.924649 317.921839 
L 158.02028 316.682759 
L 158.11591 317.272797 
L 158.211541 315.030651 
L 158.402802 317.213793 
L 158.594063 318.629885 
L 158.689694 318.747893 
L 158.785324 318.511877 
L 158.880955 317.508812 
L 159.072216 318.39387 
L 159.167847 318.570881 
L 159.263477 317.213793 
L 159.359108 318.39387 
L 159.454739 318.216858 
L 159.550369 317.567816 
L 159.646 318.8659 
L 159.932892 317.567816 
L 160.124153 318.39387 
L 160.219783 317.744828 
L 160.315414 318.924904 
L 160.506675 318.039847 
L 160.602306 318.629885 
L 160.697936 318.39387 
L 160.793567 318.629885 
L 161.080459 317.803831 
L 161.176089 317.862835 
L 161.27172 318.275862 
L 161.367351 318.039847 
L 161.749873 318.924904 
L 161.941134 317.921839 
L 162.036765 318.275862 
L 162.132395 318.157854 
L 162.228026 318.275862 
L 162.323657 318.157854 
L 162.419287 317.154789 
L 162.514918 317.213793 
L 162.610548 317.567816 
L 162.706179 316.564751 
L 162.80181 316.682759 
L 162.993071 317.508812 
L 163.088701 317.154789 
L 163.184332 318.275862 
L 163.375593 317.803831 
L 163.471224 318.511877 
L 163.566854 318.098851 
L 164.045007 319.042912 
L 164.140638 318.983908 
L 164.236269 318.334866 
L 164.42753 319.101916 
L 164.618791 317.921839 
L 164.714422 318.806897 
L 164.810052 318.452874 
L 164.905683 318.511877 
L 165.001313 318.688889 
L 165.192574 317.803831 
L 165.288205 318.924904 
L 165.479466 318.039847 
L 165.575097 318.216858 
L 165.670727 318.452874 
L 165.766358 317.980843 
L 165.861989 318.570881 
L 165.957619 318.098851 
L 166.05325 319.042912 
L 166.14888 318.983908 
L 166.244511 318.275862 
L 166.340142 318.8659 
L 166.531403 317.862835 
L 166.722664 318.511877 
L 166.818295 318.334866 
L 166.913925 319.219923 
L 167.296448 316.682759 
L 167.487709 318.924904 
L 167.583339 317.980843 
L 167.67897 318.334866 
L 167.870231 317.449808 
L 168.061492 318.747893 
L 168.157123 318.039847 
L 168.252754 318.098851 
L 168.348384 318.688889 
L 168.444015 317.980843 
L 168.539645 318.039847 
L 168.635276 318.039847 
L 168.730907 318.747893 
L 168.922168 318.334866 
L 169.017798 318.334866 
L 169.113429 318.157854 
L 169.20906 318.39387 
L 169.30469 318.098851 
L 169.400321 318.924904 
L 169.495951 318.8659 
L 169.591582 318.098851 
L 169.687213 318.570881 
L 169.782843 318.334866 
L 169.878474 318.452874 
L 169.974104 318.334866 
L 170.165366 319.042912 
L 170.260996 318.275862 
L 170.356627 318.747893 
L 170.452257 318.157854 
L 170.643519 318.8659 
L 170.739149 318.570881 
L 170.83478 318.688889 
L 171.121672 318.157854 
L 171.217302 319.101916 
L 171.312933 318.983908 
L 171.408563 318.511877 
L 171.504194 318.924904 
L 171.599825 318.39387 
L 171.695455 318.629885 
L 171.791086 318.452874 
L 171.886716 318.688889 
L 171.982347 318.334866 
L 172.077978 318.747893 
L 172.173608 317.980843 
L 172.364869 318.334866 
L 172.556131 317.744828 
L 172.651761 318.511877 
L 172.747392 318.216858 
L 172.843022 318.806897 
L 172.938653 318.452874 
L 173.225545 318.924904 
L 173.321175 318.216858 
L 173.512437 319.278927 
L 173.703698 318.570881 
L 173.799328 318.039847 
L 173.894959 318.216858 
L 173.99059 319.101916 
L 174.181851 318.157854 
L 174.277481 318.806897 
L 174.373112 318.511877 
L 174.468742 318.688889 
L 174.564373 318.157854 
L 174.755634 318.747893 
L 174.851265 317.449808 
L 175.042526 318.275862 
L 175.138157 317.980843 
L 175.329418 318.570881 
L 175.520679 318.570881 
L 175.61631 318.157854 
L 175.807571 318.688889 
L 175.903201 318.747893 
L 175.998832 318.098851 
L 176.094463 318.570881 
L 176.190093 318.216858 
L 176.285724 316.800766 
L 176.572616 318.216858 
L 176.668246 318.157854 
L 176.763877 318.157854 
L 177.050769 317.862835 
L 177.24203 319.101916 
L 177.33766 318.629885 
L 177.433291 318.216858 
L 177.528922 318.806897 
L 177.624552 318.688889 
L 177.815813 318.098851 
L 177.911444 318.157854 
L 178.102705 318.688889 
L 178.198336 318.157854 
L 178.389597 318.511877 
L 178.485228 318.098851 
L 178.772119 319.278927 
L 178.963381 318.629885 
L 179.250272 318.511877 
L 179.345903 318.924904 
L 179.441534 318.039847 
L 179.537164 318.098851 
L 179.824056 318.8659 
L 179.919687 318.570881 
L 180.015317 317.62682 
L 180.302209 318.8659 
L 180.49347 318.570881 
L 180.684731 318.039847 
L 180.780362 318.8659 
L 181.067254 318.098851 
L 181.162884 318.216858 
L 181.258515 317.980843 
L 181.449776 318.216858 
L 181.545407 318.098851 
L 181.641037 313.850575 
L 181.736668 300.279693 
L 181.927929 213.721073 
L 182.02356 164.039847 
L 182.11919 167.698084 
L 182.501713 316.09272 
L 182.692974 318.8659 
L 182.788605 318.747893 
L 182.884235 318.806897 
L 182.979866 319.101916 
L 183.075496 318.629885 
L 183.266758 318.8659 
L 183.362388 318.216858 
L 183.553649 319.101916 
L 183.64928 318.8659 
L 183.744911 318.8659 
L 183.840541 319.278927 
L 183.936172 319.101916 
L 184.031802 318.39387 
L 184.223063 319.278927 
L 184.414325 318.334866 
L 184.605586 319.101916 
L 184.701216 318.688889 
L 184.988108 319.16092 
L 185.179369 319.042912 
L 185.275 319.16092 
L 185.370631 318.688889 
L 185.466261 318.924904 
L 185.561892 319.514943 
L 185.657522 318.806897 
L 185.753153 319.042912 
L 185.848784 318.688889 
L 185.944414 318.8659 
L 186.040045 319.455939 
L 186.135675 318.511877 
L 186.231306 319.219923 
L 186.326937 319.16092 
L 186.422567 319.396935 
L 186.518198 319.219923 
L 186.613828 318.39387 
L 186.709459 318.688889 
L 186.80509 318.39387 
L 186.90072 318.806897 
L 186.996351 318.629885 
L 187.187612 319.573946 
L 187.283243 318.452874 
L 187.378873 318.629885 
L 187.570134 319.809962 
L 187.665765 318.806897 
L 187.761396 319.278927 
L 187.857026 318.983908 
L 187.952657 319.278927 
L 188.048287 318.983908 
L 188.143918 319.455939 
L 188.335179 318.688889 
L 188.52644 319.219923 
L 188.717702 319.337931 
L 188.908963 318.747893 
L 189.004593 319.514943 
L 189.195855 318.747893 
L 189.291485 319.573946 
L 189.387116 319.278927 
L 189.482746 318.511877 
L 189.578377 319.101916 
L 189.769638 318.688889 
L 189.865269 319.278927 
L 189.960899 319.16092 
L 190.05653 318.452874 
L 190.247791 319.63295 
L 190.439052 318.983908 
L 190.534683 318.806897 
L 190.821575 319.337931 
L 191.108467 319.042912 
L 191.204097 318.8659 
L 191.299728 319.337931 
L 191.490989 319.101916 
L 191.58662 319.16092 
L 191.68225 319.396935 
L 191.777881 318.983908 
L 191.873511 319.337931 
L 191.969142 318.511877 
L 192.064773 319.396935 
L 192.160403 318.511877 
L 192.256034 319.455939 
L 192.351664 319.042912 
L 192.542926 319.396935 
L 193.021079 315.266667 
L 193.116709 315.207663 
L 193.21234 315.915709 
L 193.403601 318.39387 
L 193.499231 319.278927 
L 193.690493 318.983908 
L 193.881754 319.16092 
L 193.977384 319.278927 
L 194.073015 318.629885 
L 194.359907 319.514943 
L 194.455537 319.219923 
L 194.551168 319.396935 
L 194.93369 318.688889 
L 195.124952 319.514943 
L 195.220582 318.688889 
L 195.411843 319.573946 
L 195.507474 318.806897 
L 195.603105 319.337931 
L 195.698735 319.219923 
L 195.794366 319.278927 
L 195.889996 319.101916 
L 196.081258 319.455939 
L 196.176888 318.688889 
L 196.272519 319.042912 
L 196.368149 318.924904 
L 196.46378 318.629885 
L 196.559411 319.042912 
L 196.655041 318.688889 
L 196.750672 319.337931 
L 196.846302 318.924904 
L 196.941933 319.16092 
L 197.037564 318.8659 
L 197.228825 318.983908 
L 197.324455 319.396935 
L 197.420086 319.101916 
L 197.515717 319.573946 
L 197.706978 318.629885 
L 198.185131 319.514943 
L 198.280761 319.337931 
L 198.376392 318.924904 
L 198.472023 318.983908 
L 198.567653 318.629885 
L 198.758914 319.868966 
L 198.854545 318.688889 
L 199.045806 319.455939 
L 199.237067 318.806897 
L 199.332698 319.101916 
L 199.428329 318.8659 
L 199.523959 318.983908 
L 199.61959 318.924904 
L 199.810851 319.278927 
L 199.906482 319.278927 
L 200.002112 319.396935 
L 200.289004 317.921839 
L 200.384635 318.039847 
L 200.480265 317.390805 
L 200.575896 317.62682 
L 200.671526 318.39387 
L 200.767157 318.098851 
L 200.958418 319.396935 
L 201.054049 318.452874 
L 201.24531 318.924904 
L 201.340941 319.219923 
L 201.436571 319.16092 
L 201.627832 318.747893 
L 201.723463 319.396935 
L 201.819094 318.983908 
L 201.914724 319.278927 
L 202.010355 318.924904 
L 202.105985 319.042912 
L 202.201616 318.983908 
L 202.297247 319.101916 
L 202.392877 318.629885 
L 202.488508 319.514943 
L 202.584138 319.455939 
L 202.679769 318.924904 
L 202.7754 319.101916 
L 202.87103 319.042912 
L 202.966661 319.16092 
L 203.062291 319.042912 
L 203.157922 319.455939 
L 203.444814 318.511877 
L 203.540444 318.806897 
L 203.731705 317.803831 
L 204.018597 319.514943 
L 204.114228 319.396935 
L 204.209858 319.514943 
L 204.305489 318.39387 
L 204.40112 319.63295 
L 204.49675 319.573946 
L 204.688011 318.452874 
L 204.974903 319.750958 
L 205.070534 319.573946 
L 205.166164 319.278927 
L 205.261795 319.396935 
L 205.357426 319.278927 
L 205.453056 319.63295 
L 205.644317 318.806897 
L 205.739948 318.8659 
L 205.931209 318.924904 
L 206.12247 319.278927 
L 206.313732 318.806897 
L 206.504993 319.396935 
L 206.600623 319.219923 
L 206.696254 319.573946 
L 206.887515 319.278927 
L 206.983146 319.219923 
L 207.078776 319.691954 
L 207.174407 319.101916 
L 207.270038 319.16092 
L 207.365668 319.396935 
L 207.461299 319.042912 
L 207.556929 319.337931 
L 208.130713 318.098851 
L 208.226344 318.924904 
L 208.321974 318.747893 
L 208.513235 319.219923 
L 208.608866 318.39387 
L 208.704497 319.219923 
L 208.991388 318.806897 
L 209.087019 319.514943 
L 209.18265 319.337931 
L 209.27828 318.924904 
L 209.373911 319.514943 
L 209.469541 319.455939 
L 209.565172 318.983908 
L 209.660803 319.514943 
L 209.756433 319.278927 
L 209.852064 319.337931 
L 209.947694 319.219923 
L 210.043325 319.455939 
L 210.138956 318.688889 
L 210.234586 318.8659 
L 210.425847 318.511877 
L 210.617109 319.337931 
L 210.712739 319.514943 
L 210.904 319.16092 
L 210.999631 319.219923 
L 211.095262 319.63295 
L 211.190892 319.101916 
L 211.286523 319.16092 
L 211.382153 319.101916 
L 211.477784 319.514943 
L 211.573415 319.16092 
L 211.669045 319.514943 
L 211.860306 319.278927 
L 211.955937 319.455939 
L 212.147198 319.101916 
L 212.242829 319.868966 
L 212.338459 318.924904 
L 212.43409 319.514943 
L 212.912243 314.676628 
L 213.103504 305.826054 
L 213.199135 306.298084 
L 213.581657 318.511877 
L 213.772918 319.101916 
L 213.868549 318.924904 
L 213.964179 319.514943 
L 214.05981 318.983908 
L 214.155441 319.396935 
L 214.251071 318.806897 
L 214.346702 319.278927 
L 214.442332 319.042912 
L 214.537963 319.63295 
L 214.729224 318.924904 
L 214.824855 318.8659 
L 215.016116 319.278927 
L 215.207377 318.924904 
L 215.494269 319.337931 
L 215.5899 319.219923 
L 215.68553 319.514943 
L 215.876791 319.042912 
L 215.972422 319.219923 
L 216.068053 318.924904 
L 216.259314 319.455939 
L 216.354944 317.449808 
L 216.450575 318.039847 
L 216.641836 315.974713 
L 216.737467 317.213793 
L 216.833097 316.85977 
L 217.024359 318.924904 
L 217.119989 319.396935 
L 217.21562 319.16092 
L 217.31125 319.750958 
L 217.502512 319.278927 
L 217.598142 319.691954 
L 217.693773 319.573946 
L 217.980665 318.983908 
L 218.076295 319.337931 
L 218.363187 318.924904 
L 218.458818 319.514943 
L 218.650079 318.983908 
L 218.84134 319.278927 
L 218.936971 319.337931 
L 219.032601 318.688889 
L 219.128232 319.396935 
L 219.223862 319.101916 
L 219.319493 319.455939 
L 219.415124 318.511877 
L 219.510754 319.691954 
L 219.606385 319.219923 
L 219.702015 319.691954 
L 219.797646 319.573946 
L 219.988907 319.101916 
L 220.084538 319.101916 
L 220.180168 319.337931 
L 220.562691 316.800766 
L 220.753952 317.744828 
L 220.945213 319.278927 
L 221.040844 319.042912 
L 221.136474 319.219923 
L 221.232105 318.570881 
L 221.327736 319.455939 
L 221.423366 319.16092 
L 221.518997 319.750958 
L 221.710258 318.983908 
L 221.805889 319.337931 
L 221.901519 319.278927 
L 221.99715 319.396935 
L 222.09278 318.924904 
L 222.188411 319.514943 
L 222.475303 319.042912 
L 222.570933 319.16092 
L 222.666564 318.983908 
L 222.953456 319.514943 
L 223.049086 319.63295 
L 223.144717 318.688889 
L 223.240347 319.455939 
L 223.431609 318.039847 
L 223.527239 319.219923 
L 223.62287 319.101916 
L 223.7185 319.219923 
L 223.909762 318.983908 
L 224.005392 319.809962 
L 224.101023 319.278927 
L 224.196653 319.455939 
L 224.292284 318.747893 
L 224.387915 319.573946 
L 224.483545 318.511877 
L 224.674806 319.396935 
L 224.770437 319.042912 
L 224.866068 319.219923 
L 224.961698 319.16092 
L 225.152959 319.750958 
L 225.24859 318.8659 
L 225.344221 319.101916 
L 225.439851 319.042912 
L 225.535482 318.806897 
L 225.631112 318.039847 
L 225.726743 318.8659 
L 225.822374 318.688889 
L 225.918004 319.219923 
L 226.013635 318.983908 
L 226.300527 319.691954 
L 226.396157 318.8659 
L 226.491788 319.337931 
L 226.587418 319.219923 
L 226.87431 318.216858 
L 226.969941 317.449808 
L 227.065571 317.508812 
L 227.448094 319.514943 
L 227.543724 319.63295 
L 227.639355 319.042912 
L 227.926247 319.396935 
L 228.021877 319.219923 
L 228.117508 319.278927 
L 228.213139 319.16092 
L 228.308769 319.219923 
L 228.595661 318.747893 
L 228.691292 319.573946 
L 228.786922 319.101916 
L 228.882553 319.278927 
L 228.978183 318.8659 
L 229.169445 319.63295 
L 229.360706 319.278927 
L 229.551967 319.455939 
L 229.647598 318.747893 
L 229.838859 319.455939 
L 229.934489 318.747893 
L 230.03012 319.101916 
L 230.125751 318.8659 
L 230.221381 318.983908 
L 230.317012 319.63295 
L 230.412642 319.16092 
L 230.508273 319.337931 
L 230.603904 319.219923 
L 230.699534 318.8659 
L 230.795165 319.573946 
L 230.890795 318.806897 
L 230.986426 319.455939 
L 231.082057 319.396935 
L 231.273318 318.8659 
L 231.368948 319.278927 
L 231.464579 318.983908 
L 231.65584 319.514943 
L 231.751471 318.924904 
L 231.847101 318.983908 
L 232.038362 319.396935 
L 232.133993 318.747893 
L 232.325254 319.16092 
L 232.420885 318.924904 
L 232.516515 319.514943 
L 232.707777 318.688889 
L 232.899038 319.337931 
L 232.994668 319.16092 
L 233.090299 319.396935 
L 233.18593 318.8659 
L 233.28156 319.691954 
L 233.472821 318.39387 
L 233.568452 319.396935 
L 233.664083 319.101916 
L 233.855344 319.455939 
L 233.950974 319.16092 
L 234.046605 319.396935 
L 234.333497 318.806897 
L 234.524758 319.219923 
L 234.716019 318.688889 
L 234.90728 319.396935 
L 235.002911 318.39387 
L 235.098542 319.455939 
L 235.194172 318.983908 
L 235.289803 319.455939 
L 235.385433 319.396935 
L 235.481064 319.573946 
L 235.576695 319.455939 
L 235.672325 319.573946 
L 235.863586 318.983908 
L 236.054848 319.514943 
L 236.246109 318.983908 
L 236.341739 319.396935 
L 236.533001 319.042912 
L 236.628631 319.514943 
L 236.724262 319.219923 
L 236.915523 319.455939 
L 237.011154 319.042912 
L 237.106784 319.455939 
L 237.393676 319.101916 
L 237.489307 319.16092 
L 237.584937 319.042912 
L 237.680568 319.337931 
L 237.871829 318.570881 
L 238.06309 319.573946 
L 238.254351 318.452874 
L 238.349982 319.042912 
L 238.445613 318.8659 
L 238.636874 319.396935 
L 238.732504 319.101916 
L 238.923766 319.455939 
L 239.019396 318.334866 
L 239.210657 318.983908 
L 239.306288 319.927969 
L 239.497549 319.042912 
L 239.68881 319.63295 
L 239.784441 318.924904 
L 239.880072 319.691954 
L 240.358225 318.511877 
L 240.549486 319.16092 
L 240.645116 318.334866 
L 240.740747 319.455939 
L 240.836378 318.8659 
L 240.932008 319.101916 
L 241.027639 317.980843 
L 241.123269 318.8659 
L 241.2189 318.570881 
L 241.410161 319.278927 
L 241.505792 318.511877 
L 241.697053 319.278927 
L 241.792683 319.63295 
L 241.888314 318.688889 
L 242.079575 319.514943 
L 242.175206 319.455939 
L 242.270836 319.396935 
L 242.366467 319.573946 
L 242.557728 319.337931 
L 242.653359 319.455939 
L 242.940251 318.983908 
L 243.131512 319.868966 
L 243.322773 319.337931 
L 243.418404 319.868966 
L 243.514034 319.396935 
L 243.609665 319.63295 
L 243.800926 319.042912 
L 243.896557 319.396935 
L 243.992187 319.337931 
L 244.087818 319.337931 
L 244.183448 319.455939 
L 244.279079 319.396935 
L 244.37471 319.63295 
L 244.47034 319.455939 
L 244.565971 318.8659 
L 244.757232 319.573946 
L 244.852863 318.924904 
L 245.044124 319.337931 
L 245.331016 316.09272 
L 245.426646 314.08659 
L 245.522277 314.558621 
L 245.617907 313.083525 
L 246.00043 319.042912 
L 246.09606 319.396935 
L 246.191691 318.806897 
L 246.382952 319.337931 
L 246.478583 319.63295 
L 246.574213 319.573946 
L 246.669844 318.983908 
L 246.765475 319.16092 
L 246.861105 319.63295 
L 246.956736 318.924904 
L 247.052366 319.219923 
L 247.147997 318.924904 
L 247.339258 319.691954 
L 247.434889 318.747893 
L 247.62615 319.750958 
L 247.721781 319.337931 
L 247.817411 319.573946 
L 248.008672 319.337931 
L 248.295564 319.278927 
L 248.391195 319.63295 
L 248.582456 319.16092 
L 248.773717 319.809962 
L 249.060609 319.042912 
L 249.15624 319.455939 
L 249.25187 319.219923 
L 249.443131 319.573946 
L 249.538762 319.219923 
L 249.634393 319.278927 
L 249.825654 319.63295 
L 250.112546 319.573946 
L 250.303807 319.573946 
L 250.590699 319.16092 
L 250.686329 319.396935 
L 250.78196 319.278927 
L 250.87759 319.514943 
L 251.164482 318.924904 
L 251.260113 319.219923 
L 251.355743 318.511877 
L 251.451374 318.570881 
L 251.547004 318.39387 
L 251.642635 318.688889 
L 251.833896 319.691954 
L 251.929527 319.63295 
L 252.312049 318.983908 
L 252.50331 319.455939 
L 252.598941 319.101916 
L 252.694572 319.573946 
L 252.790202 319.396935 
L 252.885833 319.455939 
L 253.268355 318.924904 
L 253.555247 319.396935 
L 253.650878 319.455939 
L 253.746508 319.750958 
L 253.937769 319.042912 
L 254.0334 319.455939 
L 254.129031 319.101916 
L 254.224661 319.927969 
L 254.415922 319.16092 
L 254.607184 319.63295 
L 254.798445 319.809962 
L 254.894075 319.986973 
L 254.989706 319.337931 
L 255.085337 319.573946 
L 255.180967 319.396935 
L 255.276598 319.63295 
L 255.372228 319.219923 
L 255.467859 319.573946 
L 255.56349 318.806897 
L 255.65912 319.63295 
L 255.850381 319.278927 
L 255.946012 319.750958 
L 256.232904 318.924904 
L 256.519796 319.809962 
L 256.711057 318.8659 
L 256.806687 319.573946 
L 257.093579 318.8659 
L 257.380471 319.455939 
L 257.476102 319.16092 
L 257.571732 319.396935 
L 257.667363 319.278927 
L 257.762993 319.396935 
L 257.858624 319.337931 
L 257.954255 319.691954 
L 258.049885 319.396935 
L 258.145516 319.691954 
L 258.241146 319.63295 
L 258.336777 319.573946 
L 258.623669 317.095785 
L 258.719299 316.800766 
L 258.910561 318.747893 
L 259.197452 319.63295 
L 259.293083 319.691954 
L 259.388714 319.573946 
L 259.484344 319.042912 
L 259.579975 319.63295 
L 259.675605 319.337931 
L 259.771236 319.63295 
L 259.866867 319.573946 
L 259.962497 319.455939 
L 260.058128 319.16092 
L 260.153758 319.278927 
L 260.249389 319.573946 
L 260.34502 319.278927 
L 260.44065 319.809962 
L 260.536281 319.63295 
L 260.631911 319.750958 
L 260.823172 319.514943 
L 260.918803 319.514943 
L 261.110064 319.868966 
L 261.396956 319.278927 
L 261.588217 319.514943 
L 261.683848 319.396935 
L 261.779478 319.986973 
L 261.875109 318.924904 
L 261.97074 319.750958 
L 262.162001 319.514943 
L 262.257631 319.868966 
L 262.448893 319.16092 
L 262.544523 319.514943 
L 262.640154 319.455939 
L 262.735784 319.101916 
L 262.927046 319.514943 
L 263.118307 319.337931 
L 263.309568 319.63295 
L 263.405199 319.514943 
L 263.500829 319.573946 
L 263.59646 319.396935 
L 263.69209 319.809962 
L 263.787721 319.16092 
L 263.978982 320.045977 
L 264.074613 319.750958 
L 264.170243 319.691954 
L 264.265874 319.455939 
L 264.361505 319.750958 
L 264.552766 319.16092 
L 264.648396 319.809962 
L 264.839658 319.219923 
L 264.935288 319.750958 
L 265.030919 319.396935 
L 265.126549 319.986973 
L 265.317811 319.63295 
L 265.413441 319.63295 
L 265.509072 319.986973 
L 265.604702 319.101916 
L 265.795964 319.63295 
L 265.891594 319.514943 
L 265.987225 319.63295 
L 266.178486 320.045977 
L 266.274117 319.63295 
L 266.369747 319.927969 
L 266.561008 319.337931 
L 266.656639 319.691954 
L 266.8479 319.573946 
L 266.943531 319.63295 
L 267.039161 319.868966 
L 267.230423 319.455939 
L 267.421684 319.042912 
L 267.612945 319.63295 
L 267.708576 319.691954 
L 267.804206 319.927969 
L 268.091098 319.455939 
L 268.186729 319.514943 
L 268.569251 318.747893 
L 268.664882 319.278927 
L 268.856143 318.924904 
L 268.951773 319.927969 
L 269.143035 319.278927 
L 269.238665 319.337931 
L 269.334296 319.691954 
L 269.429926 319.63295 
L 269.525557 319.396935 
L 269.621188 319.986973 
L 269.812449 319.514943 
L 270.00371 319.868966 
L 270.09934 319.16092 
L 270.290602 319.868966 
L 270.386232 319.63295 
L 270.481863 319.691954 
L 270.577493 319.514943 
L 270.768755 319.750958 
L 270.864385 319.396935 
L 270.960016 319.927969 
L 271.151277 319.63295 
L 271.342538 319.63295 
L 271.533799 319.101916 
L 271.725061 319.927969 
L 271.820691 319.16092 
L 271.916322 319.514943 
L 272.011952 319.042912 
L 272.107583 319.337931 
L 272.203214 319.278927 
L 272.298844 319.396935 
L 272.394475 319.16092 
L 272.490105 319.573946 
L 272.585736 319.455939 
L 272.681367 319.63295 
L 272.776997 319.573946 
L 272.872628 319.219923 
L 272.968258 319.514943 
L 273.063889 319.396935 
L 273.15952 319.986973 
L 273.542042 319.337931 
L 273.637673 319.396935 
L 273.733303 319.691954 
L 273.924564 319.219923 
L 274.115826 319.750958 
L 274.498348 319.396935 
L 274.689609 319.986973 
L 274.88087 319.573946 
L 274.976501 319.868966 
L 275.072132 319.63295 
L 275.167762 320.045977 
L 275.550285 318.924904 
L 275.645915 319.514943 
L 275.741546 319.455939 
L 275.837176 319.868966 
L 276.124068 319.455939 
L 276.315329 319.809962 
L 276.41096 318.924904 
L 276.506591 319.986973 
L 276.602221 319.750958 
L 276.697852 319.868966 
L 276.889113 319.573946 
L 276.984744 319.337931 
L 277.080374 319.573946 
L 277.176005 319.455939 
L 277.271635 319.573946 
L 277.367266 319.927969 
L 277.654158 319.514943 
L 277.749788 319.750958 
L 277.845419 319.691954 
L 277.94105 319.809962 
L 278.03668 319.514943 
L 278.132311 319.63295 
L 278.227941 319.573946 
L 278.419203 319.691954 
L 278.514833 319.337931 
L 278.610464 319.514943 
L 278.801725 319.514943 
L 278.897356 319.691954 
L 279.184247 319.396935 
L 279.279878 320.163985 
L 279.471139 319.63295 
L 279.56677 319.691954 
L 279.758031 319.337931 
L 279.853661 319.809962 
L 279.949292 319.219923 
L 280.044923 319.63295 
L 280.140553 319.278927 
L 280.523076 319.927969 
L 280.618706 319.868966 
L 280.714337 319.455939 
L 280.809967 319.63295 
L 280.905598 319.337931 
L 281.001229 320.163985 
L 281.096859 319.809962 
L 281.19249 320.104981 
L 281.479382 318.8659 
L 281.575012 316.800766 
L 281.957535 292.904215 
L 282.053165 294.792337 
L 282.531318 319.63295 
L 282.626949 319.396935 
L 282.81821 319.573946 
L 282.913841 319.16092 
L 283.009471 319.63295 
L 283.105102 319.101916 
L 283.200732 319.986973 
L 283.296363 319.750958 
L 283.391994 319.809962 
L 283.487624 319.868966 
L 283.583255 319.573946 
L 283.678885 319.927969 
L 283.774516 319.514943 
L 283.870147 319.986973 
L 284.061408 319.514943 
L 284.252669 319.809962 
L 284.539561 318.983908 
L 284.635191 319.63295 
L 284.730822 319.278927 
L 284.826453 319.455939 
L 284.922083 319.337931 
L 285.113344 319.750958 
L 285.208975 319.750958 
L 285.304606 319.573946 
L 285.495867 319.868966 
L 285.591497 319.16092 
L 285.687128 319.927969 
L 285.782759 319.63295 
L 285.878389 319.691954 
L 285.97402 319.691954 
L 286.06965 319.337931 
L 286.165281 319.514943 
L 286.260912 319.396935 
L 286.356542 319.986973 
L 286.452173 319.396935 
L 286.547803 319.868966 
L 286.643434 319.337931 
L 286.739065 319.691954 
L 286.834695 319.455939 
L 287.121587 319.809962 
L 287.217218 319.573946 
L 287.312848 319.750958 
L 287.408479 319.455939 
L 287.59974 319.750958 
L 287.695371 319.455939 
L 287.982262 319.809962 
L 288.173524 319.396935 
L 288.269154 319.573946 
L 288.460415 319.278927 
L 288.747307 316.564751 
L 288.938568 316.564751 
L 289.22546 319.809962 
L 289.321091 320.104981 
L 289.416721 319.927969 
L 289.512352 319.986973 
L 289.607982 319.455939 
L 289.894874 319.986973 
L 290.181766 319.278927 
L 290.373027 319.691954 
L 290.468658 319.868966 
L 290.659919 319.750958 
L 290.75555 319.868966 
L 290.85118 319.514943 
L 291.138072 319.986973 
L 291.233703 319.573946 
L 291.616225 319.986973 
L 291.807486 319.514943 
L 291.903117 319.809962 
L 291.998747 319.278927 
L 292.285639 319.750958 
L 292.38127 319.455939 
L 292.4769 319.750958 
L 292.668162 319.455939 
L 292.763792 319.986973 
L 292.859423 319.927969 
L 292.955053 319.455939 
L 293.050684 319.986973 
L 293.337576 319.573946 
L 293.528837 319.868966 
L 293.624468 319.455939 
L 293.720098 319.573946 
L 293.815729 319.927969 
L 293.911359 319.455939 
L 294.00699 319.514943 
L 294.102621 319.514943 
L 294.198251 319.219923 
L 294.485143 320.045977 
L 294.580774 319.337931 
L 294.676404 319.750958 
L 294.867665 319.514943 
L 295.058927 319.868966 
L 295.154557 319.986973 
L 295.441449 319.396935 
L 295.53708 319.691954 
L 295.63271 319.396935 
L 295.728341 319.514943 
L 295.823971 319.455939 
L 295.919602 319.809962 
L 296.015233 319.750958 
L 296.110863 319.809962 
L 296.206494 319.514943 
L 296.302124 319.63295 
L 296.397755 319.573946 
L 296.589016 319.809962 
L 296.684647 319.573946 
L 296.780277 319.927969 
L 296.875908 319.337931 
L 297.1628 319.750958 
L 297.25843 319.63295 
L 297.449692 319.750958 
L 297.545322 319.750958 
L 297.640953 319.63295 
L 297.736583 319.691954 
L 297.832214 319.927969 
L 298.023475 319.573946 
L 298.119106 319.986973 
L 298.214736 319.868966 
L 298.310367 319.986973 
L 298.501628 319.63295 
L 298.597259 319.986973 
L 298.88415 319.396935 
L 298.979781 319.278927 
L 299.075412 319.573946 
L 299.171042 319.16092 
L 299.266673 319.278927 
L 299.457934 319.868966 
L 299.840456 319.514943 
L 299.936087 319.691954 
L 300.031718 319.868966 
L 300.222979 319.691954 
L 300.318609 319.809962 
L 300.41424 319.63295 
L 300.605501 320.163985 
L 300.701132 319.750958 
L 300.796762 320.222989 
L 300.892393 319.455939 
L 300.988024 319.986973 
L 301.083654 319.750958 
L 301.179285 319.927969 
L 301.274915 319.396935 
L 301.466177 319.750958 
L 301.561807 319.750958 
L 301.753068 319.927969 
L 301.848699 319.986973 
L 302.03996 319.750958 
L 302.135591 320.104981 
L 302.326852 319.691954 
L 302.518113 319.278927 
L 302.805005 319.927969 
L 302.900636 319.514943 
L 302.996266 319.573946 
L 303.187527 320.104981 
L 303.283158 319.691954 
L 303.474419 320.163985 
L 303.57005 319.750958 
L 303.66568 319.927969 
L 303.952572 319.750958 
L 304.143833 319.868966 
L 304.239464 319.868966 
L 304.335095 319.986973 
L 304.430725 319.868966 
L 304.717617 317.036782 
L 305.004509 310.487356 
L 305.100139 311.136398 
L 305.482662 319.455939 
L 305.578292 319.63295 
L 305.673923 319.396935 
L 305.769554 319.809962 
L 305.960815 319.514943 
L 306.152076 319.986973 
L 306.343337 319.927969 
L 306.438968 320.104981 
L 306.534598 319.750958 
L 306.630229 320.163985 
L 306.72586 319.63295 
L 306.82149 320.163985 
L 306.917121 319.691954 
L 307.012751 320.222989 
L 307.204013 319.514943 
L 307.299643 319.750958 
L 307.395274 319.809962 
L 307.490904 319.63295 
L 307.586535 319.927969 
L 307.777796 319.278927 
L 307.969057 319.691954 
L 308.160319 319.101916 
L 308.255949 319.809962 
L 308.35158 319.691954 
L 308.44721 319.514943 
L 308.734102 319.927969 
L 308.829733 319.927969 
L 308.925363 320.045977 
L 309.020994 319.809962 
L 309.116624 320.045977 
L 309.212255 319.927969 
L 309.307886 320.045977 
L 309.403516 319.573946 
L 309.499147 319.691954 
L 309.594777 319.573946 
L 309.881669 320.222989 
L 309.9773 319.750958 
L 310.07293 319.986973 
L 310.168561 319.455939 
L 310.359822 319.750958 
L 310.455453 319.514943 
L 310.551083 319.868966 
L 310.646714 319.809962 
L 310.837975 319.691954 
L 310.933606 319.455939 
L 311.124867 319.986973 
L 311.411759 319.691954 
L 311.60302 319.986973 
L 311.698651 319.573946 
L 311.794281 320.045977 
L 311.889912 319.927969 
L 311.985542 319.396935 
L 312.176804 320.104981 
L 312.272434 319.750958 
L 312.368065 319.809962 
L 312.463695 320.104981 
L 312.559326 320.045977 
L 312.750587 319.691954 
L 312.846218 319.986973 
L 313.037479 319.455939 
L 313.13311 317.921839 
L 313.22874 318.806897 
L 313.420001 317.154789 
L 313.706893 319.809962 
L 313.802524 319.691954 
L 313.993785 319.927969 
L 314.089416 319.63295 
L 314.185046 319.927969 
L 314.280677 319.691954 
L 314.376307 319.750958 
L 314.471938 320.104981 
L 314.567569 319.750958 
L 314.663199 320.281992 
L 314.85446 319.514943 
L 315.141352 320.104981 
L 315.236983 319.455939 
L 315.332613 320.045977 
L 315.428244 319.986973 
L 315.619505 320.163985 
L 316.002028 319.986973 
L 316.097658 320.045977 
L 316.193289 319.750958 
L 316.288919 319.809962 
L 316.38455 319.986973 
L 316.575811 319.63295 
L 316.671442 320.104981 
L 316.767072 319.750958 
L 316.862703 320.104981 
L 317.053964 319.809962 
L 317.149595 320.045977 
L 317.245225 319.986973 
L 317.532117 320.045977 
L 317.627748 319.750958 
L 317.723378 319.809962 
L 317.819009 319.809962 
L 317.914639 319.63295 
L 318.01027 319.927969 
L 318.105901 319.868966 
L 318.201531 319.750958 
L 318.297162 319.986973 
L 318.392792 319.927969 
L 318.488423 319.809962 
L 318.584054 319.514943 
L 318.966576 320.045977 
L 319.062207 320.045977 
L 319.253468 319.573946 
L 319.349098 319.927969 
L 319.444729 319.691954 
L 319.63599 320.163985 
L 319.827251 319.455939 
L 319.922882 320.281992 
L 320.114143 319.691954 
L 320.209774 320.163985 
L 320.496666 319.101916 
L 320.592296 319.809962 
L 320.687927 319.691954 
L 320.783557 320.222989 
L 320.879188 319.691954 
L 321.070449 320.163985 
L 321.16608 319.927969 
L 321.26171 320.104981 
L 321.452972 319.750958 
L 321.548602 320.045977 
L 321.644233 319.514943 
L 321.931125 319.986973 
L 322.026755 319.986973 
L 322.122386 319.573946 
L 322.218016 319.927969 
L 322.313647 319.455939 
L 322.409278 319.809962 
L 322.504908 319.691954 
L 322.600539 320.104981 
L 322.696169 319.809962 
L 322.7918 319.868966 
L 322.983061 320.045977 
L 323.078692 319.868966 
L 323.365584 320.281992 
L 323.652475 319.514943 
L 323.748106 319.927969 
L 323.843737 319.868966 
L 324.130628 320.222989 
L 324.32189 319.868966 
L 324.41752 320.045977 
L 324.513151 319.927969 
L 324.608781 320.104981 
L 324.704412 319.691954 
L 324.800043 319.809962 
L 324.991304 319.691954 
L 325.086934 320.163985 
L 325.182565 319.750958 
L 325.278196 319.986973 
L 325.373826 319.809962 
L 325.469457 319.868966 
L 325.565087 319.750958 
L 325.660718 319.927969 
L 325.756349 319.750958 
L 325.94761 320.104981 
L 326.138871 319.927969 
L 326.234502 319.691954 
L 326.330132 320.045977 
L 326.425763 319.691954 
L 326.521393 320.045977 
L 326.712655 319.573946 
L 326.903916 320.222989 
L 326.999546 319.868966 
L 327.095177 319.986973 
L 327.190808 319.573946 
L 327.382069 319.750958 
L 327.477699 319.514943 
L 327.57333 320.222989 
L 327.764591 319.750958 
L 327.860222 320.045977 
L 327.955852 319.986973 
L 328.242744 320.222989 
L 328.338375 319.573946 
L 328.529636 320.222989 
L 328.720897 319.63295 
L 328.912158 319.986973 
L 329.294681 319.809962 
L 329.485942 320.045977 
L 329.581572 319.750958 
L 329.677203 320.104981 
L 329.772834 320.045977 
L 329.868464 320.281992 
L 329.964095 319.337931 
L 330.155356 320.045977 
L 330.250987 319.691954 
L 330.346617 319.750958 
L 330.442248 320.045977 
L 330.537878 319.691954 
L 330.72914 319.986973 
L 330.82477 319.809962 
L 331.016031 319.986973 
L 331.207293 319.986973 
L 331.302923 319.986973 
L 331.494184 319.573946 
L 331.589815 319.868966 
L 331.685446 319.750958 
L 331.876707 319.219923 
L 332.259229 313.732567 
L 332.546121 316.564751 
L 332.737382 319.455939 
L 332.833013 319.986973 
L 332.928643 319.927969 
L 333.024274 319.927969 
L 333.119905 320.104981 
L 333.215535 319.514943 
L 333.311166 319.573946 
L 333.693688 318.983908 
L 334.076211 319.809962 
L 334.171841 319.514943 
L 334.267472 320.045977 
L 334.363102 319.986973 
L 334.458733 319.986973 
L 334.554364 319.63295 
L 334.745625 320.163985 
L 334.841255 320.104981 
L 335.128147 319.63295 
L 335.223778 319.986973 
L 335.319408 319.868966 
L 335.415039 320.045977 
L 335.51067 319.809962 
L 335.6063 320.163985 
L 335.893192 319.396935 
L 336.084453 320.340996 
L 336.180084 319.63295 
L 336.275714 320.222989 
L 336.466976 319.455939 
L 336.562606 319.514943 
L 336.753867 318.570881 
L 336.849498 317.272797 
L 337.423281 320.045977 
L 337.518912 319.986973 
L 337.614543 319.750958 
L 337.710173 319.868966 
L 338.283957 316.328736 
L 338.570849 319.63295 
L 338.953371 320.281992 
L 339.049002 319.809962 
L 339.335893 320.104981 
L 339.431524 319.63295 
L 339.622785 320.163985 
L 339.814046 319.986973 
L 340.005308 319.573946 
L 340.100938 319.63295 
L 340.196569 320.045977 
L 340.483461 319.573946 
L 340.674722 320.104981 
L 340.770352 319.927969 
L 340.865983 320.281992 
L 341.057244 319.750958 
L 341.152875 319.927969 
L 341.248505 319.809962 
L 341.344136 320.163985 
L 341.439767 320.104981 
L 341.631028 319.809962 
L 341.726658 319.63295 
L 341.91792 319.750958 
L 342.01355 320.222989 
L 342.204811 319.868966 
L 342.300442 319.750958 
L 342.587334 320.163985 
L 342.778595 319.927969 
L 343.065487 319.809962 
L 343.161117 320.222989 
L 343.352379 319.455939 
L 343.448009 319.868966 
L 343.54364 319.63295 
L 343.830532 319.986973 
L 344.021793 320.163985 
L 344.117423 319.986973 
L 344.213054 320.340996 
L 344.404315 319.927969 
L 344.691207 320.045977 
L 344.786838 319.337931 
L 345.073729 320.104981 
L 345.16936 319.691954 
L 345.264991 320.045977 
L 345.360621 319.691954 
L 345.551882 320.104981 
L 345.743144 319.750958 
L 345.838774 319.455939 
L 346.030035 320.045977 
L 346.125666 319.868966 
L 346.316927 320.104981 
L 346.412558 319.691954 
L 346.603819 319.868966 
L 346.699449 319.927969 
L 346.79508 320.222989 
L 346.986341 319.868966 
L 347.177602 320.281992 
L 347.273233 319.809962 
L 347.368864 319.927969 
L 347.560125 319.750958 
L 347.655755 319.809962 
L 347.751386 320.045977 
L 347.847017 319.868966 
L 347.942647 319.927969 
L 348.038278 319.337931 
L 348.133908 319.927969 
L 348.516431 317.449808 
L 348.612061 318.216858 
L 348.707692 318.157854 
L 349.090214 320.045977 
L 349.185845 320.104981 
L 349.472737 319.809962 
L 349.663998 319.868966 
L 349.759629 320.163985 
L 349.855259 319.750958 
L 349.95089 320.104981 
L 350.04652 319.396935 
L 350.142151 320.045977 
L 350.333412 319.868966 
L 350.524673 320.104981 
L 350.811565 319.691954 
L 350.907196 320.045977 
L 351.002826 319.691954 
L 351.194088 320.045977 
L 351.289718 320.104981 
L 351.385349 319.868966 
L 351.480979 320.163985 
L 351.672241 319.809962 
L 351.767871 319.750958 
L 351.863502 320.222989 
L 352.054763 319.750958 
L 352.150394 319.868966 
L 352.246024 319.750958 
L 352.341655 320.045977 
L 352.437285 319.868966 
L 352.532916 320.045977 
L 352.628547 319.927969 
L 352.724177 320.104981 
L 352.915438 319.986973 
L 353.011069 320.104981 
L 353.20233 319.573946 
L 353.393591 319.868966 
L 353.489222 319.691954 
L 353.680483 320.104981 
L 353.871744 319.750958 
L 353.967375 320.163985 
L 354.063006 319.514943 
L 354.349897 320.045977 
L 354.636789 319.573946 
L 354.82805 320.104981 
L 354.923681 319.868966 
L 355.019312 319.927969 
L 355.210573 319.927969 
L 355.306203 320.045977 
L 355.401834 320.340996 
L 355.593095 319.573946 
L 355.784356 320.163985 
L 355.975618 319.750958 
L 356.166879 319.927969 
L 356.262509 319.455939 
L 356.35814 319.986973 
L 356.549401 319.809962 
L 356.645032 319.868966 
L 356.740662 319.691954 
L 356.836293 320.104981 
L 357.027554 319.63295 
L 357.218815 319.809962 
L 357.314446 319.337931 
L 357.410076 320.163985 
L 357.601338 319.514943 
L 357.792599 317.803831 
L 357.98386 317.508812 
L 358.079491 316.682759 
L 358.270752 318.629885 
L 358.366382 318.570881 
L 358.557644 319.868966 
L 358.653274 319.573946 
L 358.844535 319.750958 
L 358.940166 320.340996 
L 359.131427 319.63295 
L 359.227058 319.986973 
L 359.322688 319.868966 
L 359.51395 320.163985 
L 359.800841 319.337931 
L 359.896472 320.222989 
L 360.087733 319.750958 
L 360.183364 319.927969 
L 360.278994 319.809962 
L 360.374625 319.927969 
L 360.565886 319.514943 
L 360.852778 320.163985 
L 360.948409 319.809962 
L 361.044039 320.045977 
L 361.2353 319.63295 
L 361.426562 319.927969 
L 361.522192 319.396935 
L 361.713453 319.691954 
L 362.000345 319.691954 
L 362.191606 319.927969 
L 362.382868 319.691954 
L 362.76539 320.045977 
L 363.052282 319.455939 
L 363.147912 319.809962 
L 363.434804 319.396935 
L 363.530435 318.983908 
L 363.626065 319.750958 
L 363.721696 319.337931 
L 364.008588 319.691954 
L 364.104218 319.573946 
L 364.199849 320.163985 
L 364.39111 319.455939 
L 364.486741 319.573946 
L 364.678002 319.337931 
L 364.773633 319.868966 
L 364.869263 319.219923 
L 364.964894 319.927969 
L 365.060524 319.691954 
L 365.251786 320.222989 
L 365.443047 319.986973 
L 365.634308 320.222989 
L 365.825569 319.986973 
L 365.9212 319.809962 
L 366.01683 320.281992 
L 366.112461 320.045977 
L 366.208091 320.222989 
L 366.399353 319.809962 
L 366.494983 320.459004 
L 366.686244 319.691954 
L 366.781875 319.927969 
L 366.877506 319.750958 
L 366.973136 319.868966 
L 367.164397 319.868966 
L 367.260028 319.868966 
L 367.451289 320.045977 
L 367.54692 320.4 
L 367.738181 319.927969 
L 367.833812 319.573946 
L 367.929442 320.163985 
L 368.120703 319.927969 
L 368.216334 319.868966 
L 368.311965 320.104981 
L 368.407595 319.868966 
L 368.503226 320.163985 
L 368.694487 319.927969 
L 368.790118 319.927969 
L 368.885748 320.104981 
L 368.981379 319.868966 
L 369.077009 320.222989 
L 369.17264 319.809962 
L 369.268271 319.927969 
L 369.363901 319.868966 
L 369.459532 320.104981 
L 369.555162 320.045977 
L 369.650793 320.163985 
L 369.746424 319.986973 
L 369.937685 320.045977 
L 370.033315 319.63295 
L 370.224577 319.927969 
L 370.415838 320.045977 
L 370.511468 320.104981 
L 370.607099 319.63295 
L 370.79836 320.045977 
L 371.085252 320.104981 
L 371.276513 319.986973 
L 371.372144 320.281992 
L 371.467774 320.163985 
L 371.563405 319.868966 
L 371.754666 320.163985 
L 371.945927 320.104981 
L 372.041558 319.809962 
L 372.137189 319.986973 
L 372.42408 318.8659 
L 372.519711 319.573946 
L 372.615342 319.16092 
L 372.806603 319.927969 
L 372.997864 319.927969 
L 373.189125 320.104981 
L 373.380386 320.045977 
L 373.571648 319.927969 
L 373.667278 319.986973 
L 373.762909 319.809962 
L 373.95417 319.986973 
L 374.049801 320.340996 
L 374.241062 319.809962 
L 374.432323 319.927969 
L 374.623584 319.573946 
L 374.719215 319.337931 
L 374.910476 320.104981 
L 375.101737 320.281992 
L 375.388629 319.63295 
L 375.484259 320.104981 
L 375.771151 319.691954 
L 375.866782 320.104981 
L 375.962412 319.986973 
L 376.058043 320.281992 
L 376.153674 319.927969 
L 376.249304 320.222989 
L 376.344935 319.986973 
L 376.440565 320.281992 
L 376.536196 320.222989 
L 376.631827 320.222989 
L 376.727457 320.340996 
L 376.918718 319.868966 
L 377.20561 320.4 
L 377.301241 319.809962 
L 377.396871 319.927969 
L 377.492502 319.809962 
L 377.683763 320.222989 
L 377.875024 320.340996 
L 378.066286 320.104981 
L 378.161916 320.281992 
L 378.257547 320.222989 
L 378.353177 319.986973 
L 378.544439 320.340996 
L 378.640069 319.809962 
L 378.83133 320.340996 
L 378.926961 320.340996 
L 379.022592 320.163985 
L 379.118222 320.281992 
L 379.213853 320.163985 
L 379.405114 320.163985 
L 380.170159 320.163985 
L 380.265789 320.340996 
L 380.743942 319.927969 
L 380.935204 320.222989 
L 381.030834 320.281992 
L 381.222095 320.045977 
L 381.413357 320.340996 
L 381.604618 320.104981 
L 381.795879 320.163985 
L 381.89151 319.986973 
L 382.082771 320.4 
L 382.369663 319.986973 
L 382.656554 320.340996 
L 382.752185 320.104981 
L 382.847816 320.518008 
L 382.943446 320.104981 
L 383.039077 320.163985 
L 383.134707 320.340996 
L 383.230338 320.281992 
L 383.325969 320.045977 
L 383.51723 320.340996 
L 383.804122 319.927969 
L 383.899752 319.986973 
L 384.091013 320.340996 
L 384.282275 320.163985 
L 384.377905 320.281992 
L 384.473536 320.163985 
L 384.569166 320.4 
L 384.664797 320.340996 
L 384.760427 320.222989 
L 384.951689 320.459004 
L 385.14295 320.163985 
L 385.23858 320.459004 
L 385.429842 320.163985 
L 385.525472 319.986973 
L 385.812364 320.340996 
L 385.907995 320.104981 
L 386.099256 320.340996 
L 386.290517 320.045977 
L 386.481778 320.340996 
L 386.577409 320.163985 
L 386.673039 320.281992 
L 386.959931 320.163985 
L 387.151192 320.340996 
L 387.342454 319.691954 
L 387.438084 319.396935 
L 387.533715 319.63295 
L 387.724976 318.924904 
L 387.916237 319.573946 
L 388.107498 320.163985 
L 388.29876 319.986973 
L 388.39439 320.340996 
L 388.490021 320.222989 
L 388.681282 320.340996 
L 388.776913 320.222989 
L 389.159435 320.4 
L 389.255066 320.045977 
L 389.446327 320.4 
L 389.541957 320.163985 
L 389.733219 320.340996 
L 389.828849 320.222989 
L 389.92448 320.4 
L 390.02011 320.281992 
L 390.115741 320.4 
L 390.211372 320.222989 
L 390.307002 320.340996 
L 390.402633 320.163985 
L 390.785155 320.340996 
L 391.072047 320.281992 
L 391.263308 320.4 
L 391.358939 319.927969 
L 391.454569 320.459004 
L 391.5502 320.104981 
L 391.741461 320.281992 
L 391.837092 319.927969 
L 391.932722 320.281992 
L 392.028353 319.986973 
L 392.219614 320.104981 
L 392.315245 320.045977 
L 392.410875 320.340996 
L 392.506506 320.222989 
L 392.697767 320.340996 
L 393.17592 320.163985 
L 393.462812 320.222989 
L 393.558443 320.045977 
L 393.749704 320.163985 
L 393.845334 319.809962 
L 394.036596 320.222989 
L 394.132226 320.163985 
L 394.227857 320.281992 
L 394.323487 320.045977 
L 394.419118 320.459004 
L 394.610379 320.222989 
L 394.70601 319.809962 
L 394.80164 320.340996 
L 394.897271 320.281992 
L 395.088532 320.281992 
L 395.184163 320.281992 
L 395.279793 320.163985 
L 395.375424 320.340996 
L 395.662316 320.163985 
L 395.853577 320.459004 
L 395.949207 320.222989 
L 396.140469 320.4 
L 396.236099 320.222989 
L 396.33173 320.459004 
L 396.522991 320.340996 
L 396.618622 320.4 
L 396.714252 320.222989 
L 396.809883 320.459004 
L 397.096775 319.986973 
L 397.192405 320.281992 
L 397.288036 320.222989 
L 397.383666 320.222989 
L 397.479297 320.4 
L 397.861819 320.222989 
L 398.053081 320.459004 
L 398.148711 320.222989 
L 398.244342 320.459004 
L 398.339972 320.4 
L 398.435603 320.222989 
L 398.626864 320.459004 
L 398.818125 320.459004 
L 399.009387 320.222989 
L 399.105017 320.163985 
L 399.391909 320.459004 
L 399.48754 320.281992 
L 399.870062 320.4 
L 399.965693 320.222989 
L 400.252584 320.340996 
L 400.348215 320.281992 
L 400.539476 319.809962 
L 400.826368 317.980843 
L 401.11326 315.266667 
L 401.495782 319.278927 
L 401.687043 320.4 
L 401.878305 320.222989 
L 401.973935 320.4 
L 402.356458 320.222989 
L 402.452088 320.4 
L 402.547719 320.163985 
L 402.73898 320.459004 
L 402.834611 320.163985 
L 402.930241 320.222989 
L 403.121502 320.281992 
L 403.217133 320.459004 
L 403.408394 320.104981 
L 403.504025 320.459004 
L 403.599655 320.045977 
L 403.695286 320.459004 
L 403.790917 320.4 
L 403.886547 320.163985 
L 403.982178 320.459004 
L 404.173439 320.281992 
L 404.460331 320.459004 
L 404.555961 320.163985 
L 404.651592 320.459004 
L 404.938484 320.163985 
L 405.034114 320.4 
L 405.129745 319.986973 
L 405.225375 320.459004 
L 405.321006 320.222989 
L 405.416637 320.340996 
L 405.512267 320.163985 
L 405.607898 320.340996 
L 405.703528 320.222989 
L 405.799159 320.459004 
L 405.89479 320.4 
L 406.086051 320.4 
L 406.181681 320.222989 
L 406.277312 320.340996 
L 406.564204 320.163985 
L 406.851096 320.459004 
L 406.946726 320.163985 
L 407.042357 320.4 
L 407.233618 319.927969 
L 407.424879 317.862835 
L 407.903032 302.521839 
L 407.998663 302.403831 
L 408.381185 319.278927 
L 408.572446 320.045977 
L 408.763708 320.4 
L 409.241861 320.4 
L 409.433122 320.222989 
L 409.624383 320.4 
L 409.815644 320.340996 
L 409.911275 320.518008 
L 410.198167 320.4 
L 410.293797 320.459004 
L 410.389428 320.340996 
L 410.485058 320.518008 
L 410.580689 320.281992 
L 410.67632 320.4 
L 410.963211 320.281992 
L 411.154473 320.4 
L 411.250103 320.459004 
L 411.345734 320.281992 
L 411.536995 320.459004 
L 411.632626 320.459004 
L 411.728256 320.163985 
L 411.823887 320.518008 
L 412.015148 320.281992 
L 412.206409 320.4 
L 412.39767 320.281992 
L 412.493301 320.518008 
L 412.588932 320.340996 
L 412.780193 320.340996 
L 412.875823 320.340996 
L 412.971454 320.459004 
L 413.067085 320.222989 
L 413.162715 320.459004 
L 413.258346 320.4 
L 413.640868 320.340996 
L 413.736499 320.518008 
L 413.92776 320.340996 
L 414.02339 320.459004 
L 414.119021 320.281992 
L 414.310282 320.281992 
L 414.405913 320.222989 
L 414.597174 320.518008 
L 414.788435 320.222989 
L 414.979696 320.459004 
L 415.075327 320.459004 
L 415.170958 320.340996 
L 415.362219 320.340996 
L 415.744741 320.222989 
L 415.840372 320.459004 
L 415.936002 320.4 
L 416.031633 320.340996 
L 416.127264 320.518008 
L 416.509786 320.340996 
L 416.605417 320.459004 
L 416.796678 320.340996 
L 416.987939 320.340996 
L 417.08357 320.340996 
L 417.1792 320.459004 
L 417.370461 320.340996 
L 417.657353 320.340996 
L 417.752984 320.459004 
L 418.135506 320.340996 
L 418.231137 320.340996 
L 418.326767 320.459004 
L 418.70929 320.222989 
L 418.900551 320.518008 
L 419.091812 320.163985 
L 419.283073 320.518008 
L 419.378704 320.281992 
L 419.569965 320.459004 
L 419.761226 320.281992 
L 419.856857 320.459004 
L 420.239379 320.340996 
L 420.621902 320.518008 
L 420.717532 320.340996 
L 421.004424 320.4 
L 421.195685 320.340996 
L 421.291316 320.459004 
L 421.482577 320.281992 
L 421.769469 320.340996 
L 421.96073 320.281992 
L 422.151991 319.691954 
L 422.343253 320.281992 
L 422.438883 319.986973 
L 422.534514 320.163985 
L 422.630144 320.104981 
L 422.725775 320.4 
L 422.821406 320.340996 
L 422.917036 320.518008 
L 423.203928 320.281992 
L 423.299558 320.4 
L 423.395189 320.281992 
L 423.968973 318.216858 
L 424.064603 317.567816 
L 424.734017 320.4 
L 424.829648 320.459004 
L 424.925279 320.045977 
L 425.11654 320.459004 
L 425.21217 320.340996 
L 425.307801 320.459004 
L 425.403432 320.281992 
L 425.594693 320.459004 
L 425.785954 320.340996 
L 425.977215 320.459004 
L 426.072846 320.281992 
L 426.455368 320.4 
L 427.411674 320.4 
L 427.507305 320.222989 
L 427.602935 320.518008 
L 427.698566 320.163985 
L 427.889827 320.340996 
L 428.27235 320.222989 
L 428.559241 320.459004 
L 428.846133 320.222989 
L 428.941764 320.340996 
L 429.133025 320.222989 
L 429.324286 320.222989 
L 429.419917 320.104981 
L 429.706809 320.4 
L 429.802439 320.222989 
L 429.89807 320.459004 
L 430.089331 320.104981 
L 430.280592 320.459004 
L 430.376223 320.459004 
L 430.471853 320.222989 
L 430.663115 320.459004 
L 430.758745 320.222989 
L 430.854376 320.459004 
L 430.950006 320.4 
L 431.141268 320.459004 
L 431.236898 320.163985 
L 431.332529 320.518008 
L 431.428159 320.459004 
L 431.52379 320.4 
L 431.619421 320.518008 
L 432.384465 320.163985 
L 432.575726 320.4 
L 432.671357 320.222989 
L 432.766988 320.104981 
L 432.958249 320.459004 
L 433.14951 320.281992 
L 433.245141 320.518008 
L 433.340771 320.459004 
L 433.436402 320.163985 
L 433.532032 320.340996 
L 433.627663 320.104981 
L 433.723294 320.163985 
L 433.818924 320.222989 
L 433.914555 320.459004 
L 434.010185 320.281992 
L 434.105816 320.340996 
L 434.201447 320.222989 
L 434.6796 320.4 
L 434.77523 320.222989 
L 434.966491 320.4 
L 435.157753 320.4 
L 435.253383 320.281992 
L 435.349014 320.4 
L 435.444644 320.281992 
L 435.540275 320.518008 
L 435.731536 320.340996 
L 436.018428 320.459004 
L 436.114059 320.045977 
L 436.30532 320.459004 
L 436.40095 320.281992 
L 436.496581 320.459004 
L 436.687842 320.459004 
L 436.783473 320.518008 
L 437.070365 320.281992 
L 437.165995 320.222989 
L 437.357256 320.459004 
L 437.452887 320.340996 
L 437.548518 320.518008 
L 437.644148 320.281992 
L 437.739779 320.459004 
L 438.026671 320.340996 
L 438.122301 320.4 
L 438.217932 320.281992 
L 438.313562 320.518008 
L 438.409193 320.340996 
L 438.504824 320.518008 
L 438.600454 320.281992 
L 438.791715 320.518008 
L 438.982977 320.340996 
L 439.174238 320.459004 
L 439.269868 320.340996 
L 439.46113 320.459004 
L 439.55676 320.222989 
L 439.652391 320.459004 
L 439.748021 320.340996 
L 439.843652 320.518008 
L 440.034913 320.340996 
L 440.130544 320.518008 
L 440.226174 320.281992 
L 440.417436 320.518008 
L 440.704327 320.104981 
L 440.799958 320.4 
L 440.991219 320.281992 
L 441.851895 320.222989 
L 441.947525 320.459004 
L 442.043156 320.281992 
L 442.138786 320.340996 
L 442.234417 320.222989 
L 442.330047 320.4 
L 442.425678 320.222989 
L 442.521309 320.459004 
L 442.71257 320.281992 
L 442.8082 320.281992 
L 442.903831 320.163985 
L 443.095092 320.4 
L 443.573245 320.340996 
L 443.764506 320.340996 
L 443.860137 320.459004 
L 443.955768 320.340996 
L 444.147029 320.459004 
L 444.242659 320.281992 
L 444.433921 320.340996 
L 444.529551 320.281992 
L 444.625182 320.4 
L 444.720812 320.340996 
L 444.816443 320.518008 
L 445.103335 320.222989 
L 445.198965 320.4 
L 445.294596 320.222989 
L 445.390227 320.4 
L 445.677118 320.163985 
L 445.772749 320.340996 
L 445.96401 320.222989 
L 446.059641 320.459004 
L 446.155271 320.4 
L 446.346533 320.340996 
L 446.442163 320.4 
L 446.537794 320.281992 
L 446.633424 320.459004 
L 447.111577 320.222989 
L 447.207208 320.518008 
L 447.302839 320.222989 
L 447.398469 320.4 
L 447.4941 320.281992 
L 447.58973 320.459004 
L 447.685361 320.340996 
L 447.780992 320.459004 
L 447.876622 320.340996 
L 448.067883 320.459004 
L 448.450406 320.459004 
L 448.546036 320.163985 
L 448.641667 320.4 
L 448.737298 320.340996 
L 448.832928 320.459004 
L 449.024189 320.340996 
L 449.11982 320.4 
L 449.215451 320.222989 
L 449.406712 320.459004 
L 449.502342 320.459004 
L 449.597973 320.281992 
L 449.693604 320.459004 
L 449.884865 320.459004 
L 449.980495 320.459004 
L 450.171757 320.340996 
L 450.363018 320.459004 
L 450.64991 320.4 
L 450.936801 320.340996 
L 451.128063 320.340996 
L 451.223693 320.518008 
L 451.606216 320.340996 
L 451.797477 320.459004 
L 452.084368 320.4 
L 453.231936 320.4 
L 453.327566 320.281992 
L 453.423197 320.518008 
L 453.518827 320.4 
L 453.614458 320.459004 
L 453.614458 320.459004 
" clip-path="url(#p4f815b046b)" style="fill: none; stroke: #1f77b4; stroke-width: 0.5; stroke-linecap: round"/>
   </g>
   <g id="patch_3">
    <path d="M 63 320.4 
L 63 43.2 
" style="fill: none; stroke: #ffffff; stroke-width: 0.8; stroke-linejoin: miter; stroke-linecap: square"/>
   </g>
   <g id="patch_4">
    <path d="M 453.6 320.4 
L 453.6 43.2 
" style="fill: none; stroke: #ffffff; stroke-width: 0.8; stroke-linejoin: miter; stroke-linecap: square"/>
   </g>
   <g id="patch_5">
    <path d="M 63 320.4 
L 453.6 320.4 
" style="fill: none; stroke: #ffffff; stroke-width: 0.8; stroke-linejoin: miter; stroke-linecap: square"/>
   </g>
   <g id="patch_6">
    <path d="M 63 43.2 
L 453.6 43.2 
" style="fill: none; stroke: #ffffff; stroke-width: 0.8; stroke-linejoin: miter; stroke-linecap: square"/>
   </g>
   <g id="patch_7">
    <path d="M 183.9377 136.283881 
Q 183.9377 139.797358 183.9377 143.310835 
L 187.9377 143.310835 
Q 184.9377 149.309057 181.9377 155.30728 
Q 178.9377 149.309057 175.9377 143.310835 
L 179.9377 143.310835 
Q 179.9377 139.797358 179.9377 136.283881 
L 183.9377 136.283881 
z
" style="fill: #1f77b4; stroke: #ffffff; stroke-linecap: round"/>
   </g>
   <g id="text_16">
    <!-- $^{214}$Bi -->
    <g style="fill: #262626" transform="translate(170.2377 131.705747) scale(0.1 -0.1)">
     <defs>
      <path id="DejaVuSans-42" d="M 1259 2228 
L 1259 519 
L 2272 519 
Q 2781 519 3026 730 
Q 3272 941 3272 1375 
Q 3272 1813 3026 2020 
Q 2781 2228 2272 2228 
L 1259 2228 
z
M 1259 4147 
L 1259 2741 
L 2194 2741 
Q 2656 2741 2882 2914 
Q 3109 3088 3109 3444 
Q 3109 3797 2882 3972 
Q 2656 4147 2194 4147 
L 1259 4147 
z
M 628 4666 
L 2241 4666 
Q 2963 4666 3353 4366 
Q 3744 4066 3744 3513 
Q 3744 3084 3544 2831 
Q 3344 2578 2956 2516 
Q 3422 2416 3680 2098 
Q 3938 1781 3938 1306 
Q 3938 681 3513 340 
Q 3088 0 2303 0 
L 628 0 
L 628 4666 
z
" transform="scale(0.015625)"/>
      <path id="DejaVuSans-69" d="M 603 3500 
L 1178 3500 
L 1178 0 
L 603 0 
L 603 3500 
z
M 603 4863 
L 1178 4863 
L 1178 4134 
L 603 4134 
L 603 4863 
z
" transform="scale(0.015625)"/>
     </defs>
     <use xlink:href="#DejaVuSans-32" transform="translate(0.957031 39.046875) scale(0.7)"/>
     <use xlink:href="#DejaVuSans-31" transform="translate(45.493164 39.046875) scale(0.7)"/>
     <use xlink:href="#DejaVuSans-34" transform="translate(90.029297 39.046875) scale(0.7)"/>
     <use xlink:href="#DejaVuSans-42" transform="translate(137.299805 0.765625)"/>
     <use xlink:href="#DejaVuSans-69" transform="translate(205.90332 0.765625)"/>
    </g>
   </g>
   <g id="patch_8">
    <path d="M 214.9904 277.893077 
Q 214.9904 281.406553 214.9904 284.92003 
L 218.9904 284.92003 
Q 215.9904 290.918253 212.9904 296.916475 
Q 209.9904 290.918253 206.9904 284.92003 
L 210.9904 284.92003 
Q 210.9904 281.406553 210.9904 277.893077 
L 214.9904 277.893077 
z
" style="fill: #1f77b4; stroke: #ffffff; stroke-linecap: round"/>
   </g>
   <g id="text_17">
    <!-- $^{214}$Bi -->
    <g style="fill: #262626" transform="translate(201.2904 273.314943) scale(0.1 -0.1)">
     <use xlink:href="#DejaVuSans-32" transform="translate(0.957031 39.046875) scale(0.7)"/>
     <use xlink:href="#DejaVuSans-31" transform="translate(45.493164 39.046875) scale(0.7)"/>
     <use xlink:href="#DejaVuSans-34" transform="translate(90.029297 39.046875) scale(0.7)"/>
     <use xlink:href="#DejaVuSans-42" transform="translate(137.299805 0.765625)"/>
     <use xlink:href="#DejaVuSans-69" transform="translate(205.90332 0.765625)"/>
    </g>
   </g>
   <g id="patch_9">
    <path d="M 247.4102 283.79346 
Q 247.4102 287.306937 247.4102 290.820413 
L 251.4102 290.820413 
Q 248.4102 296.818636 245.4102 302.816858 
Q 242.4102 296.818636 239.4102 290.820413 
L 243.4102 290.820413 
Q 243.4102 287.306937 243.4102 283.79346 
L 247.4102 283.79346 
z
" style="fill: #1f77b4; stroke: #ffffff; stroke-linecap: round"/>
   </g>
   <g id="text_18">
    <!-- $^{214}$Bi -->
    <g style="fill: #262626" transform="translate(233.7102 279.215326) scale(0.1 -0.1)">
     <use xlink:href="#DejaVuSans-32" transform="translate(0.957031 39.046875) scale(0.7)"/>
     <use xlink:href="#DejaVuSans-31" transform="translate(45.493164 39.046875) scale(0.7)"/>
     <use xlink:href="#DejaVuSans-34" transform="translate(90.029297 39.046875) scale(0.7)"/>
     <use xlink:href="#DejaVuSans-42" transform="translate(137.299805 0.765625)"/>
     <use xlink:href="#DejaVuSans-69" transform="translate(205.90332 0.765625)"/>
    </g>
   </g>
   <g id="patch_10">
    <path d="M 283.736 266.09231 
Q 283.736 269.605787 283.736 273.119264 
L 287.736 273.119264 
Q 284.736 279.117486 281.736 285.115709 
Q 278.736 279.117486 275.736 273.119264 
L 279.736 273.119264 
Q 279.736 269.605787 279.736 266.09231 
L 283.736 266.09231 
z
" style="fill: #1f77b4; stroke: #ffffff; stroke-linecap: round"/>
   </g>
   <g id="text_19">
    <!-- $^{214}$Bi -->
    <g style="fill: #262626" transform="translate(270.036 261.514176) scale(0.1 -0.1)">
     <use xlink:href="#DejaVuSans-32" transform="translate(0.957031 39.046875) scale(0.7)"/>
     <use xlink:href="#DejaVuSans-31" transform="translate(45.493164 39.046875) scale(0.7)"/>
     <use xlink:href="#DejaVuSans-34" transform="translate(90.029297 39.046875) scale(0.7)"/>
     <use xlink:href="#DejaVuSans-42" transform="translate(137.299805 0.765625)"/>
     <use xlink:href="#DejaVuSans-69" transform="translate(205.90332 0.765625)"/>
    </g>
   </g>
   <g id="patch_11">
    <path d="M 306.7814 283.79346 
Q 306.7814 287.306937 306.7814 290.820413 
L 310.7814 290.820413 
Q 307.7814 296.818636 304.7814 302.816858 
Q 301.7814 296.818636 298.7814 290.820413 
L 302.7814 290.820413 
Q 302.7814 287.306937 302.7814 283.79346 
L 306.7814 283.79346 
z
" style="fill: #1f77b4; stroke: #ffffff; stroke-linecap: round"/>
   </g>
   <g id="text_20">
    <!-- $^{214}$Bi -->
    <g style="fill: #262626" transform="translate(293.0814 279.215326) scale(0.1 -0.1)">
     <use xlink:href="#DejaVuSans-32" transform="translate(0.957031 39.046875) scale(0.7)"/>
     <use xlink:href="#DejaVuSans-31" transform="translate(45.493164 39.046875) scale(0.7)"/>
     <use xlink:href="#DejaVuSans-34" transform="translate(90.029297 39.046875) scale(0.7)"/>
     <use xlink:href="#DejaVuSans-42" transform="translate(137.299805 0.765625)"/>
     <use xlink:href="#DejaVuSans-69" transform="translate(205.90332 0.765625)"/>
    </g>
   </g>
   <g id="patch_12">
    <path d="M 333.9281 283.79346 
Q 333.9281 287.306937 333.9281 290.820413 
L 337.9281 290.820413 
Q 334.9281 296.818636 331.9281 302.816858 
Q 328.9281 296.818636 325.9281 290.820413 
L 329.9281 290.820413 
Q 329.9281 287.306937 329.9281 283.79346 
L 333.9281 283.79346 
z
" style="fill: #1f77b4; stroke: #ffffff; stroke-linecap: round"/>
   </g>
   <g id="text_21">
    <!-- $^{214}$Bi -->
    <g style="fill: #262626" transform="translate(320.2281 279.215326) scale(0.1 -0.1)">
     <use xlink:href="#DejaVuSans-32" transform="translate(0.957031 39.046875) scale(0.7)"/>
     <use xlink:href="#DejaVuSans-31" transform="translate(45.493164 39.046875) scale(0.7)"/>
     <use xlink:href="#DejaVuSans-34" transform="translate(90.029297 39.046875) scale(0.7)"/>
     <use xlink:href="#DejaVuSans-42" transform="translate(137.299805 0.765625)"/>
     <use xlink:href="#DejaVuSans-69" transform="translate(205.90332 0.765625)"/>
    </g>
   </g>
   <g id="patch_13">
    <path d="M 409.5092 277.893077 
Q 409.5092 281.406553 409.5092 284.92003 
L 413.5092 284.92003 
Q 410.5092 290.918253 407.5092 296.916475 
Q 404.5092 290.918253 401.5092 284.92003 
L 405.5092 284.92003 
Q 405.5092 281.406553 405.5092 277.893077 
L 409.5092 277.893077 
z
" style="fill: #1f77b4; stroke: #ffffff; stroke-linecap: round"/>
   </g>
   <g id="text_22">
    <!-- $^{214}$Bi -->
    <g style="fill: #262626" transform="translate(395.8092 273.314943) scale(0.1 -0.1)">
     <use xlink:href="#DejaVuSans-32" transform="translate(0.957031 39.046875) scale(0.7)"/>
     <use xlink:href="#DejaVuSans-31" transform="translate(45.493164 39.046875) scale(0.7)"/>
     <use xlink:href="#DejaVuSans-34" transform="translate(90.029297 39.046875) scale(0.7)"/>
     <use xlink:href="#DejaVuSans-42" transform="translate(137.299805 0.765625)"/>
     <use xlink:href="#DejaVuSans-69" transform="translate(205.90332 0.765625)"/>
    </g>
   </g>
   <g id="patch_14">
    <path d="M 112.2626 218.889245 
Q 112.2626 222.402722 112.2626 225.916199 
L 116.2626 225.916199 
Q 113.2626 231.914421 110.2626 237.912644 
Q 107.2626 231.914421 104.2626 225.916199 
L 108.2626 225.916199 
Q 108.2626 222.402722 108.2626 218.889245 
L 112.2626 218.889245 
z
" style="fill: #1f77b4; stroke: #ffffff; stroke-linecap: round"/>
   </g>
   <g id="text_23">
    <!-- $^{214}$Pb -->
    <g style="fill: #262626" transform="translate(84.0626 214.311111) scale(0.1 -0.1)">
     <defs>
      <path id="DejaVuSans-50" d="M 1259 4147 
L 1259 2394 
L 2053 2394 
Q 2494 2394 2734 2622 
Q 2975 2850 2975 3272 
Q 2975 3691 2734 3919 
Q 2494 4147 2053 4147 
L 1259 4147 
z
M 628 4666 
L 2053 4666 
Q 2838 4666 3239 4311 
Q 3641 3956 3641 3272 
Q 3641 2581 3239 2228 
Q 2838 1875 2053 1875 
L 1259 1875 
L 1259 0 
L 628 0 
L 628 4666 
z
" transform="scale(0.015625)"/>
      <path id="DejaVuSans-62" d="M 3116 1747 
Q 3116 2381 2855 2742 
Q 2594 3103 2138 3103 
Q 1681 3103 1420 2742 
Q 1159 2381 1159 1747 
Q 1159 1113 1420 752 
Q 1681 391 2138 391 
Q 2594 391 2855 752 
Q 3116 1113 3116 1747 
z
M 1159 2969 
Q 1341 3281 1617 3432 
Q 1894 3584 2278 3584 
Q 2916 3584 3314 3078 
Q 3713 2572 3713 1747 
Q 3713 922 3314 415 
Q 2916 -91 2278 -91 
Q 1894 -91 1617 61 
Q 1341 213 1159 525 
L 1159 0 
L 581 0 
L 581 4863 
L 1159 4863 
L 1159 2969 
z
" transform="scale(0.015625)"/>
     </defs>
     <use xlink:href="#DejaVuSans-32" transform="translate(0.957031 39.046875) scale(0.7)"/>
     <use xlink:href="#DejaVuSans-31" transform="translate(45.493164 39.046875) scale(0.7)"/>
     <use xlink:href="#DejaVuSans-34" transform="translate(90.029297 39.046875) scale(0.7)"/>
     <use xlink:href="#DejaVuSans-50" transform="translate(137.299805 0.765625)"/>
     <use xlink:href="#DejaVuSans-62" transform="translate(197.602539 0.765625)"/>
    </g>
   </g>
   <g id="patch_15">
    <path d="M 122.6135 148.084648 
Q 122.6135 151.598124 122.6135 155.111601 
L 126.6135 155.111601 
Q 123.6135 161.109824 120.6135 167.108046 
Q 117.6135 161.109824 114.6135 155.111601 
L 118.6135 155.111601 
Q 118.6135 151.598124 118.6135 148.084648 
L 122.6135 148.084648 
z
" style="fill: #1f77b4; stroke: #ffffff; stroke-linecap: round"/>
   </g>
   <g id="text_24">
    <!-- $^{214}$Pb -->
    <g style="fill: #262626" transform="translate(94.4135 143.506513) scale(0.1 -0.1)">
     <use xlink:href="#DejaVuSans-32" transform="translate(0.957031 39.046875) scale(0.7)"/>
     <use xlink:href="#DejaVuSans-31" transform="translate(45.493164 39.046875) scale(0.7)"/>
     <use xlink:href="#DejaVuSans-34" transform="translate(90.029297 39.046875) scale(0.7)"/>
     <use xlink:href="#DejaVuSans-50" transform="translate(137.299805 0.765625)"/>
     <use xlink:href="#DejaVuSans-62" transform="translate(197.602539 0.765625)"/>
    </g>
   </g>
   <g id="patch_16">
    <path d="M 133.7456 65.479284 
Q 133.7456 68.99276 133.7456 72.506237 
L 137.7456 72.506237 
Q 134.7456 78.50446 131.7456 84.502682 
Q 128.7456 78.50446 125.7456 72.506237 
L 129.7456 72.506237 
Q 129.7456 68.99276 129.7456 65.479284 
L 133.7456 65.479284 
z
" style="fill: #1f77b4; stroke: #ffffff; stroke-linecap: round"/>
   </g>
   <g id="text_25">
    <!-- $^{214}$Pb -->
    <g style="fill: #262626" transform="translate(118.6456 60.901149) scale(0.1 -0.1)">
     <use xlink:href="#DejaVuSans-32" transform="translate(0.957031 39.046875) scale(0.7)"/>
     <use xlink:href="#DejaVuSans-31" transform="translate(45.493164 39.046875) scale(0.7)"/>
     <use xlink:href="#DejaVuSans-34" transform="translate(90.029297 39.046875) scale(0.7)"/>
     <use xlink:href="#DejaVuSans-50" transform="translate(137.299805 0.765625)"/>
     <use xlink:href="#DejaVuSans-62" transform="translate(197.602539 0.765625)"/>
    </g>
   </g>
   <g id="patch_17">
    <path d="M 101.3258 242.490778 
Q 101.3258 246.004255 101.3258 249.517731 
L 105.3258 249.517731 
Q 102.3258 255.515954 99.3258 261.514176 
Q 96.3258 255.515954 93.3258 249.517731 
L 97.3258 249.517731 
Q 97.3258 246.004255 97.3258 242.490778 
L 101.3258 242.490778 
z
" style="fill: #1f77b4; stroke: #ffffff; stroke-linecap: round"/>
   </g>
   <g id="text_26">
    <!-- $^{226}$Rn -->
    <g style="fill: #262626" transform="translate(72.2258 237.912644) scale(0.1 -0.1)">
     <defs>
      <path id="DejaVuSans-36" d="M 2113 2584 
Q 1688 2584 1439 2293 
Q 1191 2003 1191 1497 
Q 1191 994 1439 701 
Q 1688 409 2113 409 
Q 2538 409 2786 701 
Q 3034 994 3034 1497 
Q 3034 2003 2786 2293 
Q 2538 2584 2113 2584 
z
M 3366 4563 
L 3366 3988 
Q 3128 4100 2886 4159 
Q 2644 4219 2406 4219 
Q 1781 4219 1451 3797 
Q 1122 3375 1075 2522 
Q 1259 2794 1537 2939 
Q 1816 3084 2150 3084 
Q 2853 3084 3261 2657 
Q 3669 2231 3669 1497 
Q 3669 778 3244 343 
Q 2819 -91 2113 -91 
Q 1303 -91 875 529 
Q 447 1150 447 2328 
Q 447 3434 972 4092 
Q 1497 4750 2381 4750 
Q 2619 4750 2861 4703 
Q 3103 4656 3366 4563 
z
" transform="scale(0.015625)"/>
      <path id="DejaVuSans-52" d="M 2841 2188 
Q 3044 2119 3236 1894 
Q 3428 1669 3622 1275 
L 4263 0 
L 3584 0 
L 2988 1197 
Q 2756 1666 2539 1819 
Q 2322 1972 1947 1972 
L 1259 1972 
L 1259 0 
L 628 0 
L 628 4666 
L 2053 4666 
Q 2853 4666 3247 4331 
Q 3641 3997 3641 3322 
Q 3641 2881 3436 2590 
Q 3231 2300 2841 2188 
z
M 1259 4147 
L 1259 2491 
L 2053 2491 
Q 2509 2491 2742 2702 
Q 2975 2913 2975 3322 
Q 2975 3731 2742 3939 
Q 2509 4147 2053 4147 
L 1259 4147 
z
" transform="scale(0.015625)"/>
     </defs>
     <use xlink:href="#DejaVuSans-32" transform="translate(0.957031 39.046875) scale(0.7)"/>
     <use xlink:href="#DejaVuSans-32" transform="translate(45.493164 39.046875) scale(0.7)"/>
     <use xlink:href="#DejaVuSans-36" transform="translate(90.029297 39.046875) scale(0.7)"/>
     <use xlink:href="#DejaVuSans-52" transform="translate(137.299805 0.765625)"/>
     <use xlink:href="#DejaVuSans-6e" transform="translate(206.782227 0.765625)"/>
    </g>
   </g>
   <g id="patch_18">
    <path d="M 350.3333 295.594226 
Q 350.3333 299.107703 350.3333 302.62118 
L 354.3333 302.62118 
Q 351.3333 308.619402 348.3333 314.617625 
Q 345.3333 308.619402 342.3333 302.62118 
L 346.3333 302.62118 
Q 346.3333 299.107703 346.3333 295.594226 
L 350.3333 295.594226 
z
" style="fill: #1f77b4; stroke: #ffffff; stroke-linecap: round"/>
   </g>
   <g id="text_27">
    <!-- $^{40}$K -->
    <g style="fill: #262626" transform="translate(340.3833 291.016092) scale(0.1 -0.1)">
     <defs>
      <path id="DejaVuSans-4b" d="M 628 4666 
L 1259 4666 
L 1259 2694 
L 3353 4666 
L 4166 4666 
L 1850 2491 
L 4331 0 
L 3500 0 
L 1259 2247 
L 1259 0 
L 628 0 
L 628 4666 
z
" transform="scale(0.015625)"/>
     </defs>
     <use xlink:href="#DejaVuSans-34" transform="translate(0.957031 39.046875) scale(0.7)"/>
     <use xlink:href="#DejaVuSans-30" transform="translate(45.493164 39.046875) scale(0.7)"/>
     <use xlink:href="#DejaVuSans-4b" transform="translate(92.763672 0.765625)"/>
    </g>
   </g>
  </g>
 </g>
 <defs>
  <clipPath id="p4f815b046b">
   <rect x="63" y="43.2" width="390.6" height="277.2"/>
  </clipPath>
 </defs>
</svg>
